<?xml version="1.0" encoding="UTF-8"?>
<svg width="1440px" height="1024px" viewBox="0 0 1440 1024" version="1.1" xmlns="http://www.w3.org/2000/svg" xmlns:xlink="http://www.w3.org/1999/xlink">
    <!-- Generator: Sketch 53.2 (72643) - https://sketchapp.com -->
    <title>App Development</title>
    <desc>Created with Sketch.</desc>
    <defs>
        <linearGradient x1="36.5293971%" y1="64.7346345%" x2="85.9940256%" y2="36.9215973%" id="linearGradient-1">
            <stop stop-color="#FF6E6E" offset="0%"></stop>
            <stop stop-color="#FF6E6E" offset="100%"></stop>
        </linearGradient>
        <linearGradient x1="35.978653%" y1="100%" x2="54.8209338%" y2="31.6413311%" id="linearGradient-2">
            <stop stop-color="#D1BCFF" offset="0%"></stop>
            <stop stop-color="#A587FF" offset="100%"></stop>
        </linearGradient>
    </defs>
    <g id="App-Development" stroke="none" stroke-width="1" fill="none" fill-rule="evenodd">
        <rect fill="#FFFFFF" x="0" y="0" width="1440" height="1024"></rect>
        <g id="Plant" transform="translate(142.000000, 578.000000)">
            <path d="M199,188.174269 C142.719017,213.593114 97.7234642,213.271218 64.0133428,187.20858 C30.3032215,161.145943 8.96544052,124.033496 0,75.8712405 C105.372053,44.2283274 171.705387,81.6626704 199,188.174269 Z" id="Shape" fill="url(#linearGradient-1)"></path>
            <path d="M115.89853,142.470656 C103.751316,135.579494 90.2443015,127.943142 75.3776565,119.561698 L40.892016,127.819418 C40.2802333,127.965912 39.665953,127.586943 39.5199824,126.972968 C39.3740118,126.358992 39.7516271,125.742511 40.3634098,125.596017 L72.451652,117.912363 C53.8970542,107.455192 33.2742461,95.8646208 10.5835455,83.1408384 C10.0344845,82.8329531 9.83808165,82.1366657 10.1448674,81.5856369 C10.4516531,81.0346081 11.145454,80.8375013 11.694515,81.1453866 C53.1251551,104.377567 87.6617264,123.831731 115.306161,139.509018 L111.739126,104.426202 C111.584986,102.910198 113.850871,102.678161 114.00501,104.194164 L117.735765,140.887202 C154.592735,161.79948 178.829942,175.796159 190.452172,182.880068 C190.989749,183.207729 191.160869,183.910705 190.834378,184.450209 C190.507888,184.989712 189.807422,185.161445 189.269845,184.833785 C182.315586,180.595068 170.826387,173.871062 154.803279,164.662373 C154.761111,164.684157 154.717118,164.703541 154.671409,164.720293 L123.156017,176.270705 C122.565224,176.487231 121.91139,176.182112 121.695637,175.589201 C121.479885,174.996291 121.783915,174.340113 122.374708,174.123587 L152.226934,163.182727 C141.98523,157.304619 129.997135,150.469451 116.262897,142.67737 C116.130357,142.632944 116.00606,142.56433 115.89853,142.470656 Z" id="Shape" fill="#FFFFFF" fill-rule="nonzero"></path>
            <path d="M186.397111,220 C128.543838,198.081935 96.8676044,166.008613 91.3684105,123.780034 C85.8692165,81.5514554 96.9446186,40.291444 124.594617,0 C221.65003,52.2763031 242.250861,125.609636 186.397111,220 Z" id="Shape" fill="url(#linearGradient-2)"></path>
            <path d="M162.563708,129.304978 C173.864256,170.239804 181.123492,197.331633 184.342806,210.585861 C184.491713,211.198925 184.118297,211.817323 183.508757,211.967091 C182.899218,212.116859 182.284375,211.741283 182.135469,211.128219 C180.209165,203.19744 176.830716,190.29204 172.000421,172.413182 C171.955362,172.398663 171.910703,172.381154 171.866683,172.360566 L141.515869,158.165964 C140.946908,157.899869 140.700146,157.220256 140.96471,156.648004 C141.229275,156.075753 141.904981,155.827563 142.473943,156.093658 L171.223049,169.539167 C168.130029,158.116906 164.47778,144.778947 160.266374,129.525569 C160.204104,129.400123 160.16465,129.263425 160.154641,129.120906 C156.429503,115.630464 152.268924,100.648399 147.672953,84.1749033 L117.541306,65.5450292 C117.006764,65.2145312 116.839813,64.5107721 117.168411,63.9731392 C117.497009,63.4355063 118.196722,63.2675903 118.731264,63.5980883 L146.768197,80.932837 C141.029686,60.375216 134.628875,37.5488955 127.565857,12.4542334 C127.394949,11.8470023 127.745829,11.2153946 128.349569,11.0434981 C128.953309,10.8716016 129.581285,11.22451 129.752193,11.8317411 C142.64846,57.6517416 153.337053,95.9093719 161.818533,126.60681 L183.96233,99.2732765 C184.919211,98.0921359 186.680736,99.5357572 185.723855,100.716898 L162.563708,129.304978 Z" id="Shape" fill="#FFFFFF" fill-rule="nonzero"></path>
            <path d="M244,259.562526 C196.223838,298.760152 152.710901,310.14864 113.461189,293.727992 C74.2114767,277.307343 44.0577471,246.99163 23,202.780852 C116.556202,144.804099 190.222869,163.731324 244,259.562526 Z" id="Shape" fill="#211D41"></path>
            <path d="M153.169327,234.117219 C194.134683,244.712951 221.136641,251.916434 234.18055,255.729153 C234.783886,255.905508 235.130224,256.538261 234.954118,257.142447 C234.778012,257.746634 234.146149,258.09346 233.542813,257.917105 C225.737881,255.635733 212.91513,252.1352 195.075714,247.415825 C195.040625,247.447727 195.003156,247.477791 194.963353,247.505765 L167.519981,266.793099 C167.005523,267.154663 166.29578,267.030129 165.934725,266.514946 C165.57367,265.999763 165.698028,265.289019 166.212486,264.927456 L192.207586,246.657974 C180.806972,243.649068 167.474018,240.170685 152.208998,236.222899 C152.069616,236.214438 151.931956,236.180546 151.804023,236.118173 C138.303048,232.627071 123.297489,228.770425 106.787534,224.548288 L75.6285754,241.433553 C75.0758088,241.733101 74.3852129,241.527196 74.0860862,240.97365 C73.7869596,240.420104 73.9925754,239.728535 74.545342,239.428987 L103.538169,223.717564 C82.9334951,218.451367 60.0404012,212.629201 34.8592418,206.251166 C34.2499177,206.096833 33.8808986,205.47707 34.0350147,204.866887 C34.1891308,204.256704 34.8080214,203.887165 35.4173455,204.041498 C81.3952802,215.687066 119.745108,225.479396 150.468989,233.419087 L137.984634,200.55283 C137.445158,199.132608 139.572492,198.322254 140.111968,199.742476 L153.169327,234.117219 Z" id="Shape" fill="#FFFFFF" fill-rule="nonzero"></path>
        </g>
        <g id="Ornament" transform="translate(192.846209, 77.000000)">
            <polygon id="Shape" fill="#FFEBF7" points="398.153791 210 624.153791 210 624.153791 436 398.153791 436"></polygon>
            <path d="M582.051924,83.0625412 L565.666657,57.9384655 C564.633365,56.3540841 564.851145,54.2624943 566.188672,52.9249672 L592.078758,27.0348815 C593.416285,25.6973545 595.507875,25.479574 597.092256,26.5128662 L622.216332,42.898133 C630.005036,38.4419565 638.403338,34.9299281 647.255256,32.5180277 L653.432536,3.17595808 C653.822215,1.32498335 655.455187,0 657.346735,0 L693.960846,1.42108547e-14 C695.852395,1.42108547e-14 697.485366,1.32498335 697.875045,3.17595808 L704.052319,32.5180085 C712.904243,34.9299281 721.302545,38.4419565 729.091249,42.898133 L754.215325,26.5128662 C755.799707,25.479574 757.891296,25.6973545 759.228823,27.0348815 L785.118909,52.9249672 C786.456436,54.2624943 786.674217,56.3540841 785.640924,57.9384655 L769.255658,83.0625412 C773.711834,90.851246 777.223863,99.2495479 779.635763,108.101467 L808.977833,114.278746 C810.828807,114.668425 812.153791,116.301396 812.153791,118.192945 L812.153791,154.807055 C812.153791,156.698604 810.828807,158.331575 808.977833,158.721254 L779.635769,164.898531 C777.223863,173.750452 773.711834,182.148754 769.255658,189.937459 L785.640924,215.061535 C786.674217,216.645916 786.456436,218.737506 785.118909,220.075033 L759.228823,245.965119 C757.891296,247.302646 755.799707,247.520426 754.215325,246.487134 L729.091249,230.101867 C721.302545,234.558044 712.904243,238.070072 704.052325,240.481972 L697.875045,269.824042 C697.485366,271.675017 695.852395,273 693.960846,273 L657.346735,273 C655.455187,273 653.822215,271.675017 653.432536,269.824042 L647.255263,240.481991 C638.403338,238.070072 630.005036,234.558044 622.216332,230.101867 L597.092256,246.487134 C595.507875,247.520426 593.416285,247.302646 592.078758,245.965119 L566.188672,220.075033 C564.851145,218.737506 564.633365,216.645916 565.666657,215.061535 L582.051924,189.937459 C577.595747,182.148754 574.083718,173.750452 571.671818,164.898533 L542.329749,158.721254 C540.478774,158.331575 539.153791,156.698604 539.153791,154.807055 L539.153791,118.192945 C539.153791,116.301396 540.478774,114.668425 542.329749,114.278746 L571.671813,108.101469 C574.083718,99.2495479 577.595747,90.851246 582.051924,83.0625412 L582.051924,83.0625412 Z M675.653791,187 C703.544171,187 726.153791,164.39038 726.153791,136.5 C726.153791,108.60962 703.544171,86 675.653791,86 C647.763411,86 625.153791,108.60962 625.153791,136.5 C625.153791,164.39038 647.763411,187 675.653791,187 Z" id="Shape" fill="#FFDDE0"></path>
            <path d="M145.971405,265.579399 C145.971405,268.01417 143.997515,269.987942 141.562598,269.987942 C139.127681,269.987942 137.153791,268.01417 137.153791,265.579399 C137.153791,263.144628 139.127681,261.170856 141.562598,261.170856 C143.997515,261.170856 145.971405,263.144628 145.971405,265.579399 Z M145.971405,247.945228 C145.971405,250.379999 143.997515,252.353771 141.562598,252.353771 C139.127681,252.353771 137.153791,250.379999 137.153791,247.945228 C137.153791,245.510457 139.127681,243.536685 141.562598,243.536685 C143.997515,243.536685 145.971405,245.510457 145.971405,247.945228 Z M145.971405,230.311057 C145.971405,232.745828 143.997515,234.719599 141.562598,234.719599 C139.127681,234.719599 137.153791,232.745828 137.153791,230.311057 C137.153791,227.876286 139.127681,225.902514 141.562598,225.902514 C143.997515,225.902514 145.971405,227.876286 145.971405,230.311057 Z M145.971405,212.676885 C145.971405,215.111656 143.997515,217.085428 141.562598,217.085428 C139.127681,217.085428 137.153791,215.111656 137.153791,212.676885 C137.153791,210.242114 139.127681,208.268343 141.562598,208.268343 C143.997515,208.268343 145.971405,210.242114 145.971405,212.676885 Z M145.971405,195.042714 C145.971405,197.477485 143.997515,199.451257 141.562598,199.451257 C139.127681,199.451257 137.153791,197.477485 137.153791,195.042714 C137.153791,192.607943 139.127681,190.634171 141.562598,190.634171 C143.997515,190.634171 145.971405,192.607943 145.971405,195.042714 Z M145.971405,177.408543 C145.971405,179.843314 143.997515,181.817086 141.562598,181.817086 C139.127681,181.817086 137.153791,179.843314 137.153791,177.408543 C137.153791,174.973772 139.127681,173 141.562598,173 C143.997515,173 145.971405,174.973772 145.971405,177.408543 Z M163.606634,265.579399 C163.606634,268.01417 161.632744,269.987942 159.197827,269.987942 C156.76291,269.987942 154.78902,268.01417 154.78902,265.579399 C154.78902,263.144628 156.76291,261.170856 159.197827,261.170856 C161.632744,261.170856 163.606634,263.144628 163.606634,265.579399 Z M163.606634,247.945228 C163.606634,250.379999 161.632744,252.353771 159.197827,252.353771 C156.76291,252.353771 154.78902,250.379999 154.78902,247.945228 C154.78902,245.510457 156.76291,243.536685 159.197827,243.536685 C161.632744,243.536685 163.606634,245.510457 163.606634,247.945228 Z M163.606634,230.311057 C163.606634,232.745828 161.632744,234.719599 159.197827,234.719599 C156.76291,234.719599 154.78902,232.745828 154.78902,230.311057 C154.78902,227.876286 156.76291,225.902514 159.197827,225.902514 C161.632744,225.902514 163.606634,227.876286 163.606634,230.311057 Z M163.606634,212.676885 C163.606634,215.111656 161.632744,217.085428 159.197827,217.085428 C156.76291,217.085428 154.78902,215.111656 154.78902,212.676885 C154.78902,210.242114 156.76291,208.268343 159.197827,208.268343 C161.632744,208.268343 163.606634,210.242114 163.606634,212.676885 Z M163.606634,195.042714 C163.606634,197.477485 161.632744,199.451257 159.197827,199.451257 C156.76291,199.451257 154.78902,197.477485 154.78902,195.042714 C154.78902,192.607943 156.76291,190.634171 159.197827,190.634171 C161.632744,190.634171 163.606634,192.607943 163.606634,195.042714 Z M163.606634,177.408543 C163.606634,179.843314 161.632744,181.817086 159.197827,181.817086 C156.76291,181.817086 154.78902,179.843314 154.78902,177.408543 C154.78902,174.973772 156.76291,173 159.197827,173 C161.632744,173 163.606634,174.973772 163.606634,177.408543 Z M181.241864,265.579399 C181.241864,268.01417 179.267973,269.987942 176.833056,269.987942 C174.398139,269.987942 172.424249,268.01417 172.424249,265.579399 C172.424249,263.144628 174.398139,261.170856 176.833056,261.170856 C179.267973,261.170856 181.241864,263.144628 181.241864,265.579399 Z M181.241864,247.945228 C181.241864,250.379999 179.267973,252.353771 176.833056,252.353771 C174.398139,252.353771 172.424249,250.379999 172.424249,247.945228 C172.424249,245.510457 174.398139,243.536685 176.833056,243.536685 C179.267973,243.536685 181.241864,245.510457 181.241864,247.945228 Z M181.241864,230.311057 C181.241864,232.745828 179.267973,234.719599 176.833056,234.719599 C174.398139,234.719599 172.424249,232.745828 172.424249,230.311057 C172.424249,227.876286 174.398139,225.902514 176.833056,225.902514 C179.267973,225.902514 181.241864,227.876286 181.241864,230.311057 Z M181.241864,212.676885 C181.241864,215.111656 179.267973,217.085428 176.833056,217.085428 C174.398139,217.085428 172.424249,215.111656 172.424249,212.676885 C172.424249,210.242114 174.398139,208.268343 176.833056,208.268343 C179.267973,208.268343 181.241864,210.242114 181.241864,212.676885 Z M181.241864,195.042714 C181.241864,197.477485 179.267973,199.451257 176.833056,199.451257 C174.398139,199.451257 172.424249,197.477485 172.424249,195.042714 C172.424249,192.607943 174.398139,190.634171 176.833056,190.634171 C179.267973,190.634171 181.241864,192.607943 181.241864,195.042714 Z M181.241864,177.408543 C181.241864,179.843314 179.267973,181.817086 176.833056,181.817086 C174.398139,181.817086 172.424249,179.843314 172.424249,177.408543 C172.424249,174.973772 174.398139,173 176.833056,173 C179.267973,173 181.241864,174.973772 181.241864,177.408543 Z M198.877093,265.579399 C198.877093,268.01417 196.903203,269.987942 194.468286,269.987942 C192.033369,269.987942 190.059478,268.01417 190.059478,265.579399 C190.059478,263.144628 192.033369,261.170856 194.468286,261.170856 C196.903203,261.170856 198.877093,263.144628 198.877093,265.579399 Z M198.877093,247.945228 C198.877093,250.379999 196.903203,252.353771 194.468286,252.353771 C192.033369,252.353771 190.059478,250.379999 190.059478,247.945228 C190.059478,245.510457 192.033369,243.536685 194.468286,243.536685 C196.903203,243.536685 198.877093,245.510457 198.877093,247.945228 Z M198.877093,230.311057 C198.877093,232.745828 196.903203,234.719599 194.468286,234.719599 C192.033369,234.719599 190.059478,232.745828 190.059478,230.311057 C190.059478,227.876286 192.033369,225.902514 194.468286,225.902514 C196.903203,225.902514 198.877093,227.876286 198.877093,230.311057 Z M198.877093,212.676885 C198.877093,215.111656 196.903203,217.085428 194.468286,217.085428 C192.033369,217.085428 190.059478,215.111656 190.059478,212.676885 C190.059478,210.242114 192.033369,208.268343 194.468286,208.268343 C196.903203,208.268343 198.877093,210.242114 198.877093,212.676885 Z M198.877093,195.042714 C198.877093,197.477485 196.903203,199.451257 194.468286,199.451257 C192.033369,199.451257 190.059478,197.477485 190.059478,195.042714 C190.059478,192.607943 192.033369,190.634171 194.468286,190.634171 C196.903203,190.634171 198.877093,192.607943 198.877093,195.042714 Z M198.877093,177.408543 C198.877093,179.843314 196.903203,181.817086 194.468286,181.817086 C192.033369,181.817086 190.059478,179.843314 190.059478,177.408543 C190.059478,174.973772 192.033369,173 194.468286,173 C196.903203,173 198.877093,174.973772 198.877093,177.408543 Z M216.512322,265.579399 C216.512322,268.01417 214.538432,269.987942 212.103515,269.987942 C209.668598,269.987942 207.694707,268.01417 207.694707,265.579399 C207.694707,263.144628 209.668598,261.170856 212.103515,261.170856 C214.538432,261.170856 216.512322,263.144628 216.512322,265.579399 Z M216.512322,247.945228 C216.512322,250.379999 214.538432,252.353771 212.103515,252.353771 C209.668598,252.353771 207.694707,250.379999 207.694707,247.945228 C207.694707,245.510457 209.668598,243.536685 212.103515,243.536685 C214.538432,243.536685 216.512322,245.510457 216.512322,247.945228 Z M216.512322,230.311057 C216.512322,232.745828 214.538432,234.719599 212.103515,234.719599 C209.668598,234.719599 207.694707,232.745828 207.694707,230.311057 C207.694707,227.876286 209.668598,225.902514 212.103515,225.902514 C214.538432,225.902514 216.512322,227.876286 216.512322,230.311057 Z M216.512322,212.676885 C216.512322,215.111656 214.538432,217.085428 212.103515,217.085428 C209.668598,217.085428 207.694707,215.111656 207.694707,212.676885 C207.694707,210.242114 209.668598,208.268343 212.103515,208.268343 C214.538432,208.268343 216.512322,210.242114 216.512322,212.676885 Z M216.512322,195.042714 C216.512322,197.477485 214.538432,199.451257 212.103515,199.451257 C209.668598,199.451257 207.694707,197.477485 207.694707,195.042714 C207.694707,192.607943 209.668598,190.634171 212.103515,190.634171 C214.538432,190.634171 216.512322,192.607943 216.512322,195.042714 Z M216.512322,177.408543 C216.512322,179.843314 214.538432,181.817086 212.103515,181.817086 C209.668598,181.817086 207.694707,179.843314 207.694707,177.408543 C207.694707,174.973772 209.668598,173 212.103515,173 C214.538432,173 216.512322,174.973772 216.512322,177.408543 Z M234.147551,265.579399 C234.147551,268.01417 232.173661,269.987942 229.738744,269.987942 C227.303827,269.987942 225.329937,268.01417 225.329937,265.579399 C225.329937,263.144628 227.303827,261.170856 229.738744,261.170856 C232.173661,261.170856 234.147551,263.144628 234.147551,265.579399 Z M234.147551,247.945228 C234.147551,250.379999 232.173661,252.353771 229.738744,252.353771 C227.303827,252.353771 225.329937,250.379999 225.329937,247.945228 C225.329937,245.510457 227.303827,243.536685 229.738744,243.536685 C232.173661,243.536685 234.147551,245.510457 234.147551,247.945228 Z M234.147551,230.311057 C234.147551,232.745828 232.173661,234.719599 229.738744,234.719599 C227.303827,234.719599 225.329937,232.745828 225.329937,230.311057 C225.329937,227.876286 227.303827,225.902514 229.738744,225.902514 C232.173661,225.902514 234.147551,227.876286 234.147551,230.311057 Z M234.147551,212.676885 C234.147551,215.111656 232.173661,217.085428 229.738744,217.085428 C227.303827,217.085428 225.329937,215.111656 225.329937,212.676885 C225.329937,210.242114 227.303827,208.268343 229.738744,208.268343 C232.173661,208.268343 234.147551,210.242114 234.147551,212.676885 Z M234.147551,195.042714 C234.147551,197.477485 232.173661,199.451257 229.738744,199.451257 C227.303827,199.451257 225.329937,197.477485 225.329937,195.042714 C225.329937,192.607943 227.303827,190.634171 229.738744,190.634171 C232.173661,190.634171 234.147551,192.607943 234.147551,195.042714 Z M234.147551,177.408543 C234.147551,179.843314 232.173661,181.817086 229.738744,181.817086 C227.303827,181.817086 225.329937,179.843314 225.329937,177.408543 C225.329937,174.973772 227.303827,173 229.738744,173 C232.173661,173 234.147551,174.973772 234.147551,177.408543 Z" id="Shape" fill="#CDCBDF"></path>
            <path d="M225.044068,940.153791 C225.044068,837.915477 225.044068,708.658839 225.044068,641.890277 C142.177017,641.890277 75,708.658839 75,791.022034 C75,873.385229 142.177017,940.153791 225.044068,940.153791 Z" id="Shape" fill="#66D4FF" transform="translate(150.022034, 791.022034) scale(-1, 1) rotate(-270.000000) translate(-150.022034, -791.022034) "></path>
        </g>
        <g id="Tab" transform="translate(337.000000, 453.000000)">
            <path d="M10,-1.13686838e-13 L511,-1.15463195e-13 C516.522847,-1.16477725e-13 521,4.4771525 521,10 L521,480 C521,485.522847 516.522847,490 511,490 L10,490 C4.4771525,490 2.45271059e-15,485.522847 1.77635684e-15,480 L1.77635684e-15,10 C1.10000309e-15,4.4771525 4.4771525,-1.14448664e-13 10,-1.13686838e-13 Z" id="Shape" fill="#EBE5FF"></path>
            <path d="M40,93 L90,93 L90,106 L40,106 L40,93 Z M130,93 L300,93 L300,106 L130,106 L130,93 Z M320,93 L480,93 L480,106 L320,106 L320,93 Z M40,133 L90,133 L90,146 L40,146 L40,133 Z M130,133 L210,133 L210,146 L130,146 L130,133 Z M300,328 L479,328 L479,341 L300,341 L300,328 Z M380,407 L479,407 L479,419 L380,419 L380,407 Z M230,133 L380,133 L380,146 L230,146 L230,133 Z M230,328 L280,328 L280,341 L230,341 L230,328 Z M230,366 L360,366 L360,379 L230,379 L230,366 Z M210,407 L360,407 L360,419 L210,419 L210,407 Z M130,173 L260,173 L260,186 L130,186 L130,173 Z M280,173 L430,173 L430,186 L280,186 L280,173 Z M40,213 L90,213 L90,225 L40,225 L40,213 Z M130,213 L190,213 L190,225 L130,225 L130,213 Z M360,213 L478,213 L478,225 L360,225 L360,213 Z M40,252 L90,252 L90,264 L40,264 L40,252 Z M130,252 L240,252 L240,264 L130,264 L130,252 Z M260,252 L478,252 L478,264 L260,264 L260,252 Z M40,290 L90,290 L90,302 L40,302 L40,290 Z M350,290 L477,290 L477,302 L350,302 L350,290 Z M130,329 L210,329 L210,341 L130,341 L130,329 Z M40,368 L90,368 L90,380 L40,380 L40,368 Z M130,368 L210,368 L210,380 L130,380 L130,368 Z M40,407 L90,407 L90,419 L40,419 L40,407 Z M130,407 L190,407 L190,419 L130,419 L130,407 Z M40,446 L90,446 L90,458 L40,458 L40,446 Z M230,446 L480,446 L480,458 L230,458 L230,446 Z" id="Shape" fill="#D4C6FF"></path>
            <path d="M380,366 L479,366 L479,379 L380,379 L380,366 Z M210,213 L340,213 L340,225 L210,225 L210,213 Z M130,446 L210,446 L210,458 L130,458 L130,446 Z" id="Shape" fill="#FF95D7"></path>
            <path d="M40,173 L90,173 L90,186 L40,186 L40,173 Z M40,329 L90,329 L90,341 L40,341 L40,329 Z" id="Shape" fill="#A68BF9"></path>
            <path d="M479,173 L479,186 L449.575488,186 L449.575488,173 L479,173 Z M130,290 L330,290 L330,302 L130,302 L130,290 Z" id="Shape" fill="#66D4FF"></path>
            <path d="M10,3.55271368e-13 L511,3.57047725e-13 C516.522847,3.56033194e-13 521,4.4771525 521,10 L521,60 L0,60 L0,10 C-6.76353751e-16,4.4771525 4.4771525,3.58062255e-13 10,3.55271368e-13 Z" id="Shape" fill="#A587FF"></path>
            <path d="M49,40 C43.4771525,40 39,35.5228475 39,30 C39,24.4771525 43.4771525,20 49,20 C54.5228475,20 59,24.4771525 59,30 C59,35.5228475 54.5228475,40 49,40 Z M89,40 C83.4771525,40 79,35.5228475 79,30 C79,24.4771525 83.4771525,20 89,20 C94.5228475,20 99,24.4771525 99,30 C99,35.5228475 94.5228475,40 89,40 Z M129,40 C123.477153,40 119,35.5228475 119,30 C119,24.4771525 123.477153,20 129,20 C134.522847,20 139,24.4771525 139,30 C139,35.5228475 134.522847,40 129,40 Z" id="Shape" fill="#EBE5FF"></path>
        </g>
        <g id="Men-2" transform="translate(248.212393, 156.359400)">
            <polygon id="Shape" fill="#FE9F9F" points="60.2058999 377.688726 55.030875 398.444617 34.2421481 393.261406 39.4171729 372.505514"></polygon>
            <path d="M56.7608071,396.426363 L53.0724873,411.219406 C52.4375736,413.765906 49.8585287,415.315552 47.3120291,414.680639 L6.3556648,404.46907 C4.73204706,404.064257 3.81695894,402.12731 4.31175827,400.142778 C6.23791341,392.417392 12.3591541,392.874463 19.943868,392.146018 L34.9256333,390.982243 L56.7608071,396.426363 Z" id="Shape" fill="#211D41"></path>
            <polygon id="Shape" fill="#FE9F9F" points="119.589327 376.6406 123.589327 398.031904 102.164182 398.031904 98.1641816 376.6406"></polygon>
            <path d="M123.779613,395.655092 L123.779613,410.901004 C123.779613,413.525461 121.65207,415.653004 119.027613,415.653004 L76.8174255,415.653004 C75.1441029,415.653004 73.787607,413.994972 73.787607,411.949687 C73.787607,403.987799 79.8375963,402.950431 87.020785,400.408716 L101.275985,395.655092 L123.779613,395.655092 Z" id="Shape" fill="#211D41"></path>
            <path d="M97.6401398,206.049938 C95.4994826,204.974987 87.6364755,203.198755 81.954466,204.624347 C76.2724565,206.049938 74.8901885,204.764241 72.918642,203.294731 C77.2674512,199.666059 84.21777,197.809311 93.7695985,197.724486 C100.684669,197.724486 112.902757,200.484855 128.67927,200.484855 C144.455783,200.484855 155.764901,197.724486 192.888356,190.24569 L196.269802,157.225036 L228.83798,159.76509 L218.496578,217.093292 C194.115065,219.502079 175.027066,220.188503 161.232582,219.152565 C140.540856,217.598658 131.806406,214.111988 118.205223,214.111988 C104.60404,214.111988 105.733184,214.629652 100.017215,217.093292 C94.3012467,219.556932 80.0343208,215.21747 90.0349216,213.445926 C94.8657834,212.590169 94.9222897,212.895613 97.6401398,211.007693 C100.35799,209.119773 99.780797,207.124889 97.6401398,206.049938 Z" id="Shape" fill="#211D41"></path>
            <path d="M62.6666012,388.16751 L31.787607,382.22695 L48.1035098,254.879405 C49.6380766,242.901931 59.8327637,233.929771 71.9081428,233.929379 C191.183975,233.925505 251.021044,233.887871 251.419351,233.816479 L246.465672,256.294858 C241.259234,279.920187 219.28475,295.978683 195.194217,293.762971 L90.9729537,284.177285 L62.6666012,388.16751 Z" id="Shape" fill="#221E41"></path>
            <path d="M126.558359,387.363032 L92.7449013,387.363032 L47.0564718,266.409711 C42.3726587,254.010012 48.6276199,240.161089 61.0273189,235.477276 C63.7372585,234.453634 66.6101327,233.929055 69.5069613,233.928916 C190.396051,233.923115 251.033514,233.885636 251.419351,233.816479 L251.419351,248.6406 C251.419351,275.150268 229.929019,296.6406 203.419351,296.6406 L106.206913,296.6406 L126.558359,387.363032 Z" id="Shape" fill="#6937FF"></path>
            <path d="M218.673117,83.9297127 C207.473093,79.2784982 194.398877,84.3645074 179.450468,99.1877404 C164.50206,114.010973 162.850013,159.180623 174.494327,234.696689 C187.081271,234.696689 212.836494,234.696689 251.759996,234.696689 C251.759996,215.05716 251.759996,191.885605 251.759996,165.182024 C251.759996,125.126653 249.3236,107.27454 239.361964,94.1405997 C232.720873,85.3846394 225.82459,81.9810104 218.673117,83.9297127 Z" id="Shape" fill="#00ADFF"></path>
            <path d="M75.770967,206.023805 C75.1241287,206.023805 67.4276849,205.829309 64.5222416,206.53444 C61.6167982,207.23957 63.0203908,210.122918 70.1466043,209.609944 C77.2728178,209.09697 76.4178054,206.023805 75.770967,206.023805 Z" id="Shape" fill="#FF7272"></path>
            <path d="M27.4796538,166.655817 L64.4400998,233.994899 L45.2222894,233.966859 L44.3065651,233.733641 C43.621284,233.559113 43.0420495,233.102115 42.7126065,232.476059 L0.71711389,152.670018 C0.632878782,152.509942 0.584388417,152.333475 0.574994418,152.152814 C0.53916094,151.463682 1.06845321,150.875989 1.7572018,150.840166 L2.47488112,150.802838 L27.4796538,166.655817 Z" id="Shape" fill="#FF6E6E"></path>
            <polygon id="Shape" fill="#CCF2FF" points="28.7221225 166.547078 65.6825686 233.88616 46.001967 231.458214 2.42090807 150.760531"></polygon>
            <path d="M147.951688,229.351216 C148.605524,229.480835 149.095222,230.026969 149.15333,230.691343 L149.274055,232.071661 C149.286392,232.212721 149.278697,232.354818 149.251198,232.493717 C149.090381,233.306002 148.301886,233.83402 147.490044,233.673078 L44.322923,234.062855 C43.6690871,233.933237 43.1793884,233.387102 43.1212809,232.722728 L43.0005556,231.342411 C42.9882182,231.201351 42.9959137,231.059254 43.023413,230.920355 C43.1842296,230.10807 43.9727247,229.580052 44.7845661,229.740994 L147.951688,229.351216 Z" id="Shape" fill="#FF6E6E"></path>
            <path d="M196.407421,140.865298 L181.211828,205.35242 C198.07686,208.031751 206.509376,208.954515 206.509376,208.120712 C206.509376,207.286909 208.964108,198.14298 213.873572,180.688924 L196.407421,140.865298 Z" id="Shape" fill="#221E41"></path>
            <path d="M78.4889283,220.662927 C78.4889283,219.829874 73.6315391,222.710107 70.4930006,223.991153 C67.354462,225.272199 63.9884657,225.23272 66.4215591,223.341643 C68.8546525,221.450567 71.8912968,219.439562 75.1901126,216.881958 C77.3893231,215.176888 75.2761719,215.956517 68.8506591,219.220843 C66.1905631,221.049684 58.5750507,225.874521 61.6794155,221.495981 C63.748992,218.576954 68.0577363,214.843169 74.537502,211.306922 C68.9289373,212.250683 64.3178086,218.243233 61.1375258,218.672149 C59.0173373,218.958093 58.6093252,218.226569 59.9134895,216.477578 C64.8872497,210.996259 69.9794574,207.458371 75.1901126,205.863913 C82.1051826,205.863913 93.450974,205.863913 109.227487,205.863913 C125.004,205.863913 153.364461,203.370981 194.30887,198.385118 L197.690316,165.364464 L230.258494,167.904518 L219.917092,225.23272 C195.535579,227.641507 176.44758,228.327931 162.653096,227.291993 C141.96137,225.738086 114.250166,221.97704 100.192977,221.495981 C86.1357887,221.014922 85.234765,222.76908 79.5187964,225.23272 C73.8028277,227.69636 67.9708388,227.355386 74.0837405,223.991153 C76.999164,222.386651 78.4889283,221.495981 78.4889283,220.662927 Z" id="Shape" fill="#FE9F9F"></path>
            <path d="M219.480528,75.6052844 C214.679971,66.6022597 211.263243,59.7897824 209.230346,55.1678525 C207.197448,50.5459226 205.182315,45.3670366 203.184945,39.6311946 C204.402133,29.5879211 200.958796,23.1565914 192.854935,20.3372055 C180.699144,16.1081265 160.76141,22.7452405 155.567383,28.2442837 C150.373356,33.7433269 148.575582,47.8535244 155.567383,56.2815202 L153.906941,66.3028362 C156.106962,67.9175186 158.239019,68.2375505 160.303112,67.2629318 C163.589805,72.194771 165.981597,75.2910689 167.478488,76.5518256 C169.723824,78.4429606 174.970709,84.1731541 186.651142,78.5692597 C189.31757,83.6021442 191.327274,87.3047288 192.680254,89.6770136 C194.270067,92.4645579 183.791518,96.3563007 192.680254,104.175665 C198.606078,109.388575 209.184842,102.715488 224.416545,84.1564042 L219.480528,75.6052844 Z" id="Shape" fill="#FE9F9F"></path>
            <path d="M212.026826,67.9950354 C204.263522,72.165349 199.14195,73.3626474 196.66211,71.5869306 C192.942349,68.9233553 189.01363,62.6140384 188.206349,60.3730155 C187.399067,58.1319927 190.199338,57.6483245 192.023097,56.595377 C193.846856,55.5424294 194.303292,49.7944698 190.628423,47.7927129 C186.953554,45.7909561 184.619462,47.784426 183.6617,49.0695608 C182.703938,50.3546955 178.75042,50.5865475 176.894191,44.9994767 C175.037962,39.4124059 174.630245,33.4111605 171.310317,35.3279218 C167.990389,37.2446831 148.153581,45.8473398 139.866743,33.7602843 C131.579905,21.6732288 134.769547,10.2720123 149.870099,9.25111615 C164.970652,8.23021998 168.449738,5.50586222 178.486009,2.41396323 C188.52228,-0.677935755 198.784955,-3.28561373 209.648874,11.2174156 C220.512792,25.7204449 218.879261,37.2357031 214.995664,47.0182049 C211.112066,56.8007067 213.750222,57.5881392 214.549642,61.2595588 C215.082589,63.7071719 214.24165,65.9523307 212.026826,67.9950354 Z" id="Shape" fill="#221E41"></path>
            <path d="M196.608518,136.528686 L194.23482,172.22983 C220.364419,176.454117 233.429218,178.566261 233.429218,178.566261 L235.164671,141.39206" id="Shape" fill="#00ADFF"></path>
            <path d="M102.198344,373.726786 L101.229154,373.973099 L99.5049607,367.188767 L100.474151,366.942454 L102.198344,373.726786 Z M98.0110181,357.250551 L97.0418278,357.496865 L95.3176348,350.712533 L96.286825,350.46622 L98.0110181,357.250551 Z M93.8236922,340.774317 L92.8545019,341.02063 L91.1303089,334.236298 L92.0994991,333.989985 L93.8236922,340.774317 Z M89.6363662,324.298083 L88.667176,324.544396 L86.9429829,317.760064 L87.9121732,317.513751 L89.6363662,324.298083 Z M85.4490403,307.821848 L84.47985,308.068161 L82.755657,301.28383 L83.7248473,301.037516 L85.4490403,307.821848 Z M81.2617144,291.345614 L80.2925241,291.591927 L78.5683311,284.807595 L79.5375214,284.561282 L81.2617144,291.345614 Z M78.5172852,274.974771 L77.5609515,274.682494 C78.2863999,272.308818 79.8332152,270.254678 81.9247337,268.909678 L82.4656199,269.750774 C80.5739231,270.967274 79.1738191,272.826584 78.5172852,274.974771 Z M91.8907679,268.276304 L91.8986705,267.276335 L98.898452,267.331654 L98.8905493,268.331623 L91.8907679,268.276304 Z M108.890237,268.410649 L108.89814,267.410681 L115.897921,267.465999 L115.890018,268.465968 L108.890237,268.410649 Z M125.889706,268.544995 L125.897609,267.545026 L132.89739,267.600345 L132.889488,268.600314 L125.889706,268.544995 Z M142.889175,268.67934 L142.897078,267.679372 L149.896859,267.73469 L149.888957,268.734659 L142.889175,268.67934 Z M159.888644,268.813686 L159.896547,267.813717 L166.896329,267.869036 L166.888426,268.869005 L159.888644,268.813686 Z M176.888114,268.948031 L176.896016,267.948063 L183.895798,268.003381 L183.887895,269.00335 L176.888114,268.948031 Z M193.956144,268.844089 L193.811743,267.85457 C196.083692,267.523023 198.275302,266.792749 200.287757,265.701722 L200.764361,266.58084 C198.648759,267.727787 196.344725,268.495522 193.956144,268.844089 Z M208.216722,259.677793 L207.37657,259.135442 C207.418167,259.071004 207.459398,259.006303 207.500235,258.941379 L211.102032,253.214074 L211.94855,253.746434 L208.34673,259.473776 C208.303782,259.542056 208.260445,259.610062 208.216722,259.677793 Z M217.272148,245.281252 L216.42563,244.748892 L218.364348,241.66609 L219.210866,242.198449 L217.272148,245.281252 Z" id="Shape" fill="#A587FF" fill-rule="nonzero"></path>
        </g>
        <g id="Gadget" transform="translate(686.000000, 162.000000)">
            <path d="M167.263362,-5.68434189e-14 L555.341108,-5.68434189e-14 C575.223359,-6.04957291e-14 591.341108,16.117749 591.341108,36 L591.341108,744.364656 C591.341108,764.246907 575.223359,780.364656 555.341108,780.364656 L167.263362,780.364656 C147.381111,780.364656 131.263362,764.246907 131.263362,744.364656 L131.263362,36 C131.263362,16.117749 147.381111,-5.31911086e-14 167.263362,-5.68434189e-14 Z" id="Shape" fill="#FF6E6E"></path>
            <polygon id="Shape" fill="#FFFFFF" points="571.341108 48.0224404 571.341108 696.325386 151.263362 696.325386 151.263362 48.0224404"></polygon>
            <path d="M10,292 L428,292 C433.522847,292 438,296.477153 438,302 L438,426 C438,431.522847 433.522847,436 428,436 L10,436 C4.4771525,436 4.28778352e-13,431.522847 4.28101998e-13,426 L4.28101998e-13,302 C4.27425645e-13,296.477153 4.4771525,292 10,292 Z" id="Shape" fill="#FF95D7"></path>
            <path d="M57,399 C36.5654643,399 20,382.434536 20,362 C20,341.565464 36.5654643,325 57,325 C77.4345357,325 94,341.565464 94,362 C94,382.434536 77.4345357,399 57,399 Z M130,322 L238.5,322 L238.5,332 L130,332 L130,322 Z M130,372 L368,372 L368,382 L130,382 L130,372 Z M130,397 L418,397 L418,407 L130,407 L130,397 Z M130,347 L418,347 L418,357 L130,357 L130,347 Z" id="Shape" fill="#FFC8EA"></path>
            <path d="M64.5035356,352.279213 C66.0061848,350.659849 68.5370768,350.565233 70.1564409,352.067882 C71.7758051,353.570531 71.8704212,356.101423 70.3677719,357.720787 L58.3047406,370.720787 C56.9238039,372.208985 54.6470318,372.426651 53.0091351,371.227062 L44.6365127,365.094986 C42.8542557,363.789668 42.4676202,361.286694 43.7729382,359.504437 C45.0782562,357.72218 47.5812303,357.335545 49.3634873,358.640863 L54.8629288,362.668632 L64.5035356,352.279213 Z" id="Shape" fill="#FF95D7" fill-rule="nonzero"></path>
            <path d="M201,486 L521.592918,486 C527.115766,486 531.592918,490.477153 531.592918,496 L531.592918,648.63385 C531.592918,654.156697 527.115766,658.63385 521.592918,658.63385 L201,658.63385 C195.477153,658.63385 191,654.156697 191,648.63385 L191,496 C191,490.477153 195.477153,486 201,486 Z" id="Shape" fill="#E1DAFE"></path>
            <path d="M10,88 L430,88 C435.522847,88 440,92.4771525 440,98 L440,224 C440,229.522847 435.522847,234 430,234 L10,234 C4.4771525,234 6.76353751e-16,229.522847 0,224 L0,98 C-6.76353751e-16,92.4771525 4.4771525,88 10,88 Z" id="Shape" fill="#66D4FF"></path>
            <path d="M331,119 L404,119 C407.313708,119 410,121.686292 410,125 L410,198 C410,201.313708 407.313708,204 404,204 L331,204 C327.686292,204 325,201.313708 325,198 L325,125 C325,121.686292 327.686292,119 331,119 Z M30,119 L118.5,119 L118.5,129 L30,129 L30,119 Z M30,169 L278,169 L278,179 L30,179 L30,169 Z M30,194 L278,194 L278,204 L30,204 L30,194 Z M30,144 L278,144 L278,154 L30,154 L30,144 Z" id="Shape" fill="#CCF2FF"></path>
        </g>
        <g id="Men" transform="translate(1101.504708, 358.219016)">
            <polygon id="Shape" fill="#FE9F9F" points="241.758858 544.780984 241.758858 566.39589 220.130951 566.39589 220.130951 544.780984"></polygon>
            <path d="M241.960408,563.994234 L241.960408,579.401183 C241.960408,582.05215 239.811375,584.201183 237.160408,584.201183 L194.553784,584.201183 C192.864625,584.201183 191.495292,582.52582 191.495292,580.459155 C191.495292,572.414042 197.602536,571.36583 204.853705,568.797547 L219.243812,563.994234 L241.960408,563.994234 Z" id="Shape" fill="#211D41"></path>
            <polygon id="Shape" fill="#FE9F9F" points="111.161958 460.780984 111.161958 482.39589 89.5340514 482.39589 89.5340514 460.780984"></polygon>
            <path d="M111.960408,479.994234 L111.960408,495.401183 C111.960408,498.05215 109.811375,500.201183 107.160408,500.201183 L64.5537836,500.201183 C62.8646252,500.201183 61.4952917,498.52582 61.4952917,496.459155 C61.4952917,488.414042 67.6025365,487.36583 74.8537049,484.797547 L89.2438123,479.994234 L111.960408,479.994234 Z" id="Shape" fill="#211D41"></path>
            <polygon id="Shape" fill="#211D41" points="216.517868 557.287556 170.600342 269.86284 257.195487 268.110329 244.646501 557.287556"></polygon>
            <path d="M85.3919895,472.530213 L80.507078,352.345815 C80.2778937,346.70715 82.5671217,341.258393 86.7547074,337.47538 L161.385244,270.055072 L257.266044,268.475197 C255.460984,306.176673 230.433175,338.793129 194.483388,350.294098 L130.909982,370.632347 L115.142745,472.530213 L85.3919895,472.530213 Z" id="Shape" fill="#6937FF"></path>
            <path d="M202.371332,98.1199757 C202.45371,83.0403454 200.056322,74.8925247 195.179169,73.6765136 C187.863438,71.8524971 185.321213,66.6931691 185.776275,60.1337622 C185.870629,58.7737145 186.09624,55.9517871 186.453107,51.66798 L181.043597,49.2768958 L189.911296,21.9350911 C219.785079,17.4723777 235.843756,24.618446 238.087328,43.3732962 C240.3309,62.1281463 236.768656,76.4155239 227.400598,86.2354288 L227.001144,97.6742994 L202.371332,98.1199757 Z" id="Shape" fill="#FE9F9F"></path>
            <path d="M160.996795,83.5995805 L152.506868,123.541545 L93.921638,102.095751 L31.7986409,31.7737981 C20.5699384,32.0540489 12.397737,30.3169938 7.28203657,26.562633 C2.16633617,22.8082721 -0.25399285,15.5723434 0.0210495005,4.85484672 L19.869961,9.0738631 L21.7986702,-9.23705556e-14 L27.5485569,11.6149921 L101.750327,71.006355 L160.996795,83.5995805 Z" id="Shape" fill="#FE9F9F"></path>
            <path d="M228.906257,85.8894183 C220.704174,85.9248576 215.97222,84.6738204 214.710395,82.1363068 C212.817657,78.3300362 212.346449,71.4426817 212.662416,69.2527833 C212.978383,67.0628848 215.490911,67.8871168 217.449762,67.8187123 C219.408613,67.7503077 222.29564,63.2352419 220.150568,59.9913204 C218.005495,56.7473989 215.216249,57.3646508 213.867573,58.0010486 C212.518897,58.6374463 209.168721,57.1038835 210.084975,51.7124581 C211.001229,46.3210327 213.288817,41.2214733 209.72297,41.3459954 C206.157124,41.4705175 186.096486,39.8770717 184.568897,26.3511095 C183.041308,12.8251474 190.644939,4.86534222 203.500157,10.6118312 C216.355374,16.3583201 220.404942,15.6408568 230.003581,17.4808575 C239.60222,19.3208582 249.175298,21.656694 251.764819,38.2876593 C254.354339,54.9186246 247.979623,63.650414 240.513128,69.980103 C233.046632,76.309792 234.87045,78.1058094 233.922918,81.4653907 C233.29123,83.7051115 231.61901,85.1797874 228.906257,85.8894183 Z" id="Shape" fill="#221E41"></path>
            <path d="M201.747718,91.7809836 C204.127605,91.7809836 208.861574,91.6982883 215.949625,91.5328977 C239.139272,90.9917979 258.376844,109.352072 258.917945,132.541719 C258.925564,132.868247 258.929374,133.194852 258.929374,133.521469 L258.929374,270.237406 L161.319779,270.237406 L167.920013,136.813874 L129.360111,118.504669 L137.362919,75.3552394 C177.842568,86.3057356 199.304168,91.7809836 201.747718,91.7809836 Z" id="Shape" fill="#00ADFF"></path>
            <path d="M210.113411,286.855727 L204.161651,290.540364 L203.635274,289.690113 L209.587034,286.005475 L210.113411,286.855727 Z M195.659137,295.804132 L189.707377,299.48877 L189.181,298.638518 L195.13276,294.953881 L195.659137,295.804132 Z M181.204863,304.752538 L175.253103,308.437175 L174.726726,307.586924 L180.678486,303.902286 L181.204863,304.752538 Z M166.750589,313.700943 L160.798829,317.385581 L160.272452,316.535329 L166.224212,312.850692 L166.750589,313.700943 Z M152.296315,322.649349 L146.344555,326.333986 L145.818178,325.483735 L151.769938,321.799097 L152.296315,322.649349 Z M137.842041,331.597754 L131.890281,335.282392 L131.363904,334.432141 L137.315664,330.747503 L137.842041,331.597754 Z M123.387767,340.54616 L119.54049,342.927946 C118.849091,343.35598 118.176898,343.811532 117.525247,344.293436 L116.930657,343.489407 C117.604384,342.991177 118.299333,342.520204 119.014113,342.077695 L122.86139,339.695908 L123.387767,340.54616 Z M110.718977,351.356552 C109.419729,353.256432 108.346502,355.302658 107.522262,357.452638 L106.588528,357.094672 C107.440699,354.871833 108.550277,352.7563 109.893535,350.792066 L110.718977,351.356552 Z M105.581589,367.084632 L105.290356,374.078571 L104.291222,374.036966 L104.582455,367.043027 L105.581589,367.084632 Z M104.874309,384.069912 L104.583076,391.063851 L103.583942,391.022247 L103.875175,384.028308 L104.874309,384.069912 Z M104.167029,401.055193 L103.875796,408.049132 L102.876662,408.007527 L103.167895,401.013588 L104.167029,401.055193 Z M103.459749,418.040473 L103.168516,425.034412 L102.169382,424.992808 L102.460615,417.998869 L103.459749,418.040473 Z M102.752469,435.025754 L102.461236,442.019693 L101.462102,441.978088 L101.753335,434.984149 L102.752469,435.025754 Z M102.045189,452.011034 L101.753956,459.004973 L100.754821,458.963369 L101.046054,451.96943 L102.045189,452.011034 Z" id="Shape" fill="#A587FF" fill-rule="nonzero"></path>
        </g>
    </g>
</svg>