<?xml version="1.0" encoding="UTF-8"?>
<svg width="1440px" height="1024px" viewBox="0 0 1440 1024" version="1.1" xmlns="http://www.w3.org/2000/svg" xmlns:xlink="http://www.w3.org/1999/xlink">
    <!-- Generator: Sketch 53.2 (72643) - https://sketchapp.com -->
    <title>Business Idea</title>
    <desc>Created with Sketch.</desc>
    <g id="Business-Idea" stroke="none" stroke-width="1" fill="none" fill-rule="evenodd">
        <rect fill="#FFFFFF" x="0" y="0" width="1440" height="1024"></rect>
        <g id="Ornament" transform="translate(572.109723, 142.000000)">
            <path d="M657.707892,223.579399 C657.707892,226.01417 655.734001,227.987942 653.299084,227.987942 C650.864167,227.987942 648.890277,226.01417 648.890277,223.579399 C648.890277,221.144628 650.864167,219.170856 653.299084,219.170856 C655.734001,219.170856 657.707892,221.144628 657.707892,223.579399 Z M657.707892,205.945228 C657.707892,208.379999 655.734001,210.353771 653.299084,210.353771 C650.864167,210.353771 648.890277,208.379999 648.890277,205.945228 C648.890277,203.510457 650.864167,201.536685 653.299084,201.536685 C655.734001,201.536685 657.707892,203.510457 657.707892,205.945228 Z M657.707892,188.311057 C657.707892,190.745828 655.734001,192.719599 653.299084,192.719599 C650.864167,192.719599 648.890277,190.745828 648.890277,188.311057 C648.890277,185.876286 650.864167,183.902514 653.299084,183.902514 C655.734001,183.902514 657.707892,185.876286 657.707892,188.311057 Z M657.707892,170.676885 C657.707892,173.111656 655.734001,175.085428 653.299084,175.085428 C650.864167,175.085428 648.890277,173.111656 648.890277,170.676885 C648.890277,168.242114 650.864167,166.268343 653.299084,166.268343 C655.734001,166.268343 657.707892,168.242114 657.707892,170.676885 Z M657.707892,153.042714 C657.707892,155.477485 655.734001,157.451257 653.299084,157.451257 C650.864167,157.451257 648.890277,155.477485 648.890277,153.042714 C648.890277,150.607943 650.864167,148.634171 653.299084,148.634171 C655.734001,148.634171 657.707892,150.607943 657.707892,153.042714 Z M657.707892,135.408543 C657.707892,137.843314 655.734001,139.817086 653.299084,139.817086 C650.864167,139.817086 648.890277,137.843314 648.890277,135.408543 C648.890277,132.973772 650.864167,131 653.299084,131 C655.734001,131 657.707892,132.973772 657.707892,135.408543 Z M675.343121,223.579399 C675.343121,226.01417 673.369231,227.987942 670.934314,227.987942 C668.499397,227.987942 666.525506,226.01417 666.525506,223.579399 C666.525506,221.144628 668.499397,219.170856 670.934314,219.170856 C673.369231,219.170856 675.343121,221.144628 675.343121,223.579399 Z M675.343121,205.945228 C675.343121,208.379999 673.369231,210.353771 670.934314,210.353771 C668.499397,210.353771 666.525506,208.379999 666.525506,205.945228 C666.525506,203.510457 668.499397,201.536685 670.934314,201.536685 C673.369231,201.536685 675.343121,203.510457 675.343121,205.945228 Z M675.343121,188.311057 C675.343121,190.745828 673.369231,192.719599 670.934314,192.719599 C668.499397,192.719599 666.525506,190.745828 666.525506,188.311057 C666.525506,185.876286 668.499397,183.902514 670.934314,183.902514 C673.369231,183.902514 675.343121,185.876286 675.343121,188.311057 Z M675.343121,170.676885 C675.343121,173.111656 673.369231,175.085428 670.934314,175.085428 C668.499397,175.085428 666.525506,173.111656 666.525506,170.676885 C666.525506,168.242114 668.499397,166.268343 670.934314,166.268343 C673.369231,166.268343 675.343121,168.242114 675.343121,170.676885 Z M675.343121,153.042714 C675.343121,155.477485 673.369231,157.451257 670.934314,157.451257 C668.499397,157.451257 666.525506,155.477485 666.525506,153.042714 C666.525506,150.607943 668.499397,148.634171 670.934314,148.634171 C673.369231,148.634171 675.343121,150.607943 675.343121,153.042714 Z M675.343121,135.408543 C675.343121,137.843314 673.369231,139.817086 670.934314,139.817086 C668.499397,139.817086 666.525506,137.843314 666.525506,135.408543 C666.525506,132.973772 668.499397,131 670.934314,131 C673.369231,131 675.343121,132.973772 675.343121,135.408543 Z M692.97835,223.579399 C692.97835,226.01417 691.00446,227.987942 688.569543,227.987942 C686.134626,227.987942 684.160736,226.01417 684.160736,223.579399 C684.160736,221.144628 686.134626,219.170856 688.569543,219.170856 C691.00446,219.170856 692.97835,221.144628 692.97835,223.579399 Z M692.97835,205.945228 C692.97835,208.379999 691.00446,210.353771 688.569543,210.353771 C686.134626,210.353771 684.160736,208.379999 684.160736,205.945228 C684.160736,203.510457 686.134626,201.536685 688.569543,201.536685 C691.00446,201.536685 692.97835,203.510457 692.97835,205.945228 Z M692.97835,188.311057 C692.97835,190.745828 691.00446,192.719599 688.569543,192.719599 C686.134626,192.719599 684.160736,190.745828 684.160736,188.311057 C684.160736,185.876286 686.134626,183.902514 688.569543,183.902514 C691.00446,183.902514 692.97835,185.876286 692.97835,188.311057 Z M692.97835,170.676885 C692.97835,173.111656 691.00446,175.085428 688.569543,175.085428 C686.134626,175.085428 684.160736,173.111656 684.160736,170.676885 C684.160736,168.242114 686.134626,166.268343 688.569543,166.268343 C691.00446,166.268343 692.97835,168.242114 692.97835,170.676885 Z M692.97835,153.042714 C692.97835,155.477485 691.00446,157.451257 688.569543,157.451257 C686.134626,157.451257 684.160736,155.477485 684.160736,153.042714 C684.160736,150.607943 686.134626,148.634171 688.569543,148.634171 C691.00446,148.634171 692.97835,150.607943 692.97835,153.042714 Z M692.97835,135.408543 C692.97835,137.843314 691.00446,139.817086 688.569543,139.817086 C686.134626,139.817086 684.160736,137.843314 684.160736,135.408543 C684.160736,132.973772 686.134626,131 688.569543,131 C691.00446,131 692.97835,132.973772 692.97835,135.408543 Z M710.613579,223.579399 C710.613579,226.01417 708.639689,227.987942 706.204772,227.987942 C703.769855,227.987942 701.795965,226.01417 701.795965,223.579399 C701.795965,221.144628 703.769855,219.170856 706.204772,219.170856 C708.639689,219.170856 710.613579,221.144628 710.613579,223.579399 Z M710.613579,205.945228 C710.613579,208.379999 708.639689,210.353771 706.204772,210.353771 C703.769855,210.353771 701.795965,208.379999 701.795965,205.945228 C701.795965,203.510457 703.769855,201.536685 706.204772,201.536685 C708.639689,201.536685 710.613579,203.510457 710.613579,205.945228 Z M710.613579,188.311057 C710.613579,190.745828 708.639689,192.719599 706.204772,192.719599 C703.769855,192.719599 701.795965,190.745828 701.795965,188.311057 C701.795965,185.876286 703.769855,183.902514 706.204772,183.902514 C708.639689,183.902514 710.613579,185.876286 710.613579,188.311057 Z M710.613579,170.676885 C710.613579,173.111656 708.639689,175.085428 706.204772,175.085428 C703.769855,175.085428 701.795965,173.111656 701.795965,170.676885 C701.795965,168.242114 703.769855,166.268343 706.204772,166.268343 C708.639689,166.268343 710.613579,168.242114 710.613579,170.676885 Z M710.613579,153.042714 C710.613579,155.477485 708.639689,157.451257 706.204772,157.451257 C703.769855,157.451257 701.795965,155.477485 701.795965,153.042714 C701.795965,150.607943 703.769855,148.634171 706.204772,148.634171 C708.639689,148.634171 710.613579,150.607943 710.613579,153.042714 Z M710.613579,135.408543 C710.613579,137.843314 708.639689,139.817086 706.204772,139.817086 C703.769855,139.817086 701.795965,137.843314 701.795965,135.408543 C701.795965,132.973772 703.769855,131 706.204772,131 C708.639689,131 710.613579,132.973772 710.613579,135.408543 Z M728.248809,223.579399 C728.248809,226.01417 726.274918,227.987942 723.840001,227.987942 C721.405084,227.987942 719.431194,226.01417 719.431194,223.579399 C719.431194,221.144628 721.405084,219.170856 723.840001,219.170856 C726.274918,219.170856 728.248809,221.144628 728.248809,223.579399 Z M728.248809,205.945228 C728.248809,208.379999 726.274918,210.353771 723.840001,210.353771 C721.405084,210.353771 719.431194,208.379999 719.431194,205.945228 C719.431194,203.510457 721.405084,201.536685 723.840001,201.536685 C726.274918,201.536685 728.248809,203.510457 728.248809,205.945228 Z M728.248809,188.311057 C728.248809,190.745828 726.274918,192.719599 723.840001,192.719599 C721.405084,192.719599 719.431194,190.745828 719.431194,188.311057 C719.431194,185.876286 721.405084,183.902514 723.840001,183.902514 C726.274918,183.902514 728.248809,185.876286 728.248809,188.311057 Z M728.248809,170.676885 C728.248809,173.111656 726.274918,175.085428 723.840001,175.085428 C721.405084,175.085428 719.431194,173.111656 719.431194,170.676885 C719.431194,168.242114 721.405084,166.268343 723.840001,166.268343 C726.274918,166.268343 728.248809,168.242114 728.248809,170.676885 Z M728.248809,153.042714 C728.248809,155.477485 726.274918,157.451257 723.840001,157.451257 C721.405084,157.451257 719.431194,155.477485 719.431194,153.042714 C719.431194,150.607943 721.405084,148.634171 723.840001,148.634171 C726.274918,148.634171 728.248809,150.607943 728.248809,153.042714 Z M728.248809,135.408543 C728.248809,137.843314 726.274918,139.817086 723.840001,139.817086 C721.405084,139.817086 719.431194,137.843314 719.431194,135.408543 C719.431194,132.973772 721.405084,131 723.840001,131 C726.274918,131 728.248809,132.973772 728.248809,135.408543 Z M745.884038,223.579399 C745.884038,226.01417 743.910148,227.987942 741.47523,227.987942 C739.040313,227.987942 737.066423,226.01417 737.066423,223.579399 C737.066423,221.144628 739.040313,219.170856 741.47523,219.170856 C743.910148,219.170856 745.884038,221.144628 745.884038,223.579399 Z M745.884038,205.945228 C745.884038,208.379999 743.910148,210.353771 741.47523,210.353771 C739.040313,210.353771 737.066423,208.379999 737.066423,205.945228 C737.066423,203.510457 739.040313,201.536685 741.47523,201.536685 C743.910148,201.536685 745.884038,203.510457 745.884038,205.945228 Z M745.884038,188.311057 C745.884038,190.745828 743.910148,192.719599 741.47523,192.719599 C739.040313,192.719599 737.066423,190.745828 737.066423,188.311057 C737.066423,185.876286 739.040313,183.902514 741.47523,183.902514 C743.910148,183.902514 745.884038,185.876286 745.884038,188.311057 Z M745.884038,170.676885 C745.884038,173.111656 743.910148,175.085428 741.47523,175.085428 C739.040313,175.085428 737.066423,173.111656 737.066423,170.676885 C737.066423,168.242114 739.040313,166.268343 741.47523,166.268343 C743.910148,166.268343 745.884038,168.242114 745.884038,170.676885 Z M745.884038,153.042714 C745.884038,155.477485 743.910148,157.451257 741.47523,157.451257 C739.040313,157.451257 737.066423,155.477485 737.066423,153.042714 C737.066423,150.607943 739.040313,148.634171 741.47523,148.634171 C743.910148,148.634171 745.884038,150.607943 745.884038,153.042714 Z M745.884038,135.408543 C745.884038,137.843314 743.910148,139.817086 741.47523,139.817086 C739.040313,139.817086 737.066423,137.843314 737.066423,135.408543 C737.066423,132.973772 739.040313,131 741.47523,131 C743.910148,131 745.884038,132.973772 745.884038,135.408543 Z M657.707892,330.579399 C657.707892,333.01417 655.734001,334.987942 653.299084,334.987942 C650.864167,334.987942 648.890277,333.01417 648.890277,330.579399 C648.890277,328.144628 650.864167,326.170856 653.299084,326.170856 C655.734001,326.170856 657.707892,328.144628 657.707892,330.579399 Z M657.707892,312.945228 C657.707892,315.379999 655.734001,317.353771 653.299084,317.353771 C650.864167,317.353771 648.890277,315.379999 648.890277,312.945228 C648.890277,310.510457 650.864167,308.536685 653.299084,308.536685 C655.734001,308.536685 657.707892,310.510457 657.707892,312.945228 Z M657.707892,295.311057 C657.707892,297.745828 655.734001,299.719599 653.299084,299.719599 C650.864167,299.719599 648.890277,297.745828 648.890277,295.311057 C648.890277,292.876286 650.864167,290.902514 653.299084,290.902514 C655.734001,290.902514 657.707892,292.876286 657.707892,295.311057 Z M657.707892,277.676885 C657.707892,280.111656 655.734001,282.085428 653.299084,282.085428 C650.864167,282.085428 648.890277,280.111656 648.890277,277.676885 C648.890277,275.242114 650.864167,273.268343 653.299084,273.268343 C655.734001,273.268343 657.707892,275.242114 657.707892,277.676885 Z M657.707892,260.042714 C657.707892,262.477485 655.734001,264.451257 653.299084,264.451257 C650.864167,264.451257 648.890277,262.477485 648.890277,260.042714 C648.890277,257.607943 650.864167,255.634171 653.299084,255.634171 C655.734001,255.634171 657.707892,257.607943 657.707892,260.042714 Z M657.707892,242.408543 C657.707892,244.843314 655.734001,246.817086 653.299084,246.817086 C650.864167,246.817086 648.890277,244.843314 648.890277,242.408543 C648.890277,239.973772 650.864167,238 653.299084,238 C655.734001,238 657.707892,239.973772 657.707892,242.408543 Z M675.343121,330.579399 C675.343121,333.01417 673.369231,334.987942 670.934314,334.987942 C668.499397,334.987942 666.525506,333.01417 666.525506,330.579399 C666.525506,328.144628 668.499397,326.170856 670.934314,326.170856 C673.369231,326.170856 675.343121,328.144628 675.343121,330.579399 Z M675.343121,312.945228 C675.343121,315.379999 673.369231,317.353771 670.934314,317.353771 C668.499397,317.353771 666.525506,315.379999 666.525506,312.945228 C666.525506,310.510457 668.499397,308.536685 670.934314,308.536685 C673.369231,308.536685 675.343121,310.510457 675.343121,312.945228 Z M675.343121,295.311057 C675.343121,297.745828 673.369231,299.719599 670.934314,299.719599 C668.499397,299.719599 666.525506,297.745828 666.525506,295.311057 C666.525506,292.876286 668.499397,290.902514 670.934314,290.902514 C673.369231,290.902514 675.343121,292.876286 675.343121,295.311057 Z M675.343121,277.676885 C675.343121,280.111656 673.369231,282.085428 670.934314,282.085428 C668.499397,282.085428 666.525506,280.111656 666.525506,277.676885 C666.525506,275.242114 668.499397,273.268343 670.934314,273.268343 C673.369231,273.268343 675.343121,275.242114 675.343121,277.676885 Z M675.343121,260.042714 C675.343121,262.477485 673.369231,264.451257 670.934314,264.451257 C668.499397,264.451257 666.525506,262.477485 666.525506,260.042714 C666.525506,257.607943 668.499397,255.634171 670.934314,255.634171 C673.369231,255.634171 675.343121,257.607943 675.343121,260.042714 Z M675.343121,242.408543 C675.343121,244.843314 673.369231,246.817086 670.934314,246.817086 C668.499397,246.817086 666.525506,244.843314 666.525506,242.408543 C666.525506,239.973772 668.499397,238 670.934314,238 C673.369231,238 675.343121,239.973772 675.343121,242.408543 Z M692.97835,330.579399 C692.97835,333.01417 691.00446,334.987942 688.569543,334.987942 C686.134626,334.987942 684.160736,333.01417 684.160736,330.579399 C684.160736,328.144628 686.134626,326.170856 688.569543,326.170856 C691.00446,326.170856 692.97835,328.144628 692.97835,330.579399 Z M692.97835,312.945228 C692.97835,315.379999 691.00446,317.353771 688.569543,317.353771 C686.134626,317.353771 684.160736,315.379999 684.160736,312.945228 C684.160736,310.510457 686.134626,308.536685 688.569543,308.536685 C691.00446,308.536685 692.97835,310.510457 692.97835,312.945228 Z M692.97835,295.311057 C692.97835,297.745828 691.00446,299.719599 688.569543,299.719599 C686.134626,299.719599 684.160736,297.745828 684.160736,295.311057 C684.160736,292.876286 686.134626,290.902514 688.569543,290.902514 C691.00446,290.902514 692.97835,292.876286 692.97835,295.311057 Z M692.97835,277.676885 C692.97835,280.111656 691.00446,282.085428 688.569543,282.085428 C686.134626,282.085428 684.160736,280.111656 684.160736,277.676885 C684.160736,275.242114 686.134626,273.268343 688.569543,273.268343 C691.00446,273.268343 692.97835,275.242114 692.97835,277.676885 Z M692.97835,260.042714 C692.97835,262.477485 691.00446,264.451257 688.569543,264.451257 C686.134626,264.451257 684.160736,262.477485 684.160736,260.042714 C684.160736,257.607943 686.134626,255.634171 688.569543,255.634171 C691.00446,255.634171 692.97835,257.607943 692.97835,260.042714 Z M692.97835,242.408543 C692.97835,244.843314 691.00446,246.817086 688.569543,246.817086 C686.134626,246.817086 684.160736,244.843314 684.160736,242.408543 C684.160736,239.973772 686.134626,238 688.569543,238 C691.00446,238 692.97835,239.973772 692.97835,242.408543 Z M710.613579,330.579399 C710.613579,333.01417 708.639689,334.987942 706.204772,334.987942 C703.769855,334.987942 701.795965,333.01417 701.795965,330.579399 C701.795965,328.144628 703.769855,326.170856 706.204772,326.170856 C708.639689,326.170856 710.613579,328.144628 710.613579,330.579399 Z M710.613579,312.945228 C710.613579,315.379999 708.639689,317.353771 706.204772,317.353771 C703.769855,317.353771 701.795965,315.379999 701.795965,312.945228 C701.795965,310.510457 703.769855,308.536685 706.204772,308.536685 C708.639689,308.536685 710.613579,310.510457 710.613579,312.945228 Z M710.613579,295.311057 C710.613579,297.745828 708.639689,299.719599 706.204772,299.719599 C703.769855,299.719599 701.795965,297.745828 701.795965,295.311057 C701.795965,292.876286 703.769855,290.902514 706.204772,290.902514 C708.639689,290.902514 710.613579,292.876286 710.613579,295.311057 Z M710.613579,277.676885 C710.613579,280.111656 708.639689,282.085428 706.204772,282.085428 C703.769855,282.085428 701.795965,280.111656 701.795965,277.676885 C701.795965,275.242114 703.769855,273.268343 706.204772,273.268343 C708.639689,273.268343 710.613579,275.242114 710.613579,277.676885 Z M710.613579,260.042714 C710.613579,262.477485 708.639689,264.451257 706.204772,264.451257 C703.769855,264.451257 701.795965,262.477485 701.795965,260.042714 C701.795965,257.607943 703.769855,255.634171 706.204772,255.634171 C708.639689,255.634171 710.613579,257.607943 710.613579,260.042714 Z M710.613579,242.408543 C710.613579,244.843314 708.639689,246.817086 706.204772,246.817086 C703.769855,246.817086 701.795965,244.843314 701.795965,242.408543 C701.795965,239.973772 703.769855,238 706.204772,238 C708.639689,238 710.613579,239.973772 710.613579,242.408543 Z M728.248809,330.579399 C728.248809,333.01417 726.274918,334.987942 723.840001,334.987942 C721.405084,334.987942 719.431194,333.01417 719.431194,330.579399 C719.431194,328.144628 721.405084,326.170856 723.840001,326.170856 C726.274918,326.170856 728.248809,328.144628 728.248809,330.579399 Z M728.248809,312.945228 C728.248809,315.379999 726.274918,317.353771 723.840001,317.353771 C721.405084,317.353771 719.431194,315.379999 719.431194,312.945228 C719.431194,310.510457 721.405084,308.536685 723.840001,308.536685 C726.274918,308.536685 728.248809,310.510457 728.248809,312.945228 Z M728.248809,295.311057 C728.248809,297.745828 726.274918,299.719599 723.840001,299.719599 C721.405084,299.719599 719.431194,297.745828 719.431194,295.311057 C719.431194,292.876286 721.405084,290.902514 723.840001,290.902514 C726.274918,290.902514 728.248809,292.876286 728.248809,295.311057 Z M728.248809,277.676885 C728.248809,280.111656 726.274918,282.085428 723.840001,282.085428 C721.405084,282.085428 719.431194,280.111656 719.431194,277.676885 C719.431194,275.242114 721.405084,273.268343 723.840001,273.268343 C726.274918,273.268343 728.248809,275.242114 728.248809,277.676885 Z M728.248809,260.042714 C728.248809,262.477485 726.274918,264.451257 723.840001,264.451257 C721.405084,264.451257 719.431194,262.477485 719.431194,260.042714 C719.431194,257.607943 721.405084,255.634171 723.840001,255.634171 C726.274918,255.634171 728.248809,257.607943 728.248809,260.042714 Z M728.248809,242.408543 C728.248809,244.843314 726.274918,246.817086 723.840001,246.817086 C721.405084,246.817086 719.431194,244.843314 719.431194,242.408543 C719.431194,239.973772 721.405084,238 723.840001,238 C726.274918,238 728.248809,239.973772 728.248809,242.408543 Z M745.884038,330.579399 C745.884038,333.01417 743.910148,334.987942 741.47523,334.987942 C739.040313,334.987942 737.066423,333.01417 737.066423,330.579399 C737.066423,328.144628 739.040313,326.170856 741.47523,326.170856 C743.910148,326.170856 745.884038,328.144628 745.884038,330.579399 Z M745.884038,312.945228 C745.884038,315.379999 743.910148,317.353771 741.47523,317.353771 C739.040313,317.353771 737.066423,315.379999 737.066423,312.945228 C737.066423,310.510457 739.040313,308.536685 741.47523,308.536685 C743.910148,308.536685 745.884038,310.510457 745.884038,312.945228 Z M745.884038,295.311057 C745.884038,297.745828 743.910148,299.719599 741.47523,299.719599 C739.040313,299.719599 737.066423,297.745828 737.066423,295.311057 C737.066423,292.876286 739.040313,290.902514 741.47523,290.902514 C743.910148,290.902514 745.884038,292.876286 745.884038,295.311057 Z M745.884038,277.676885 C745.884038,280.111656 743.910148,282.085428 741.47523,282.085428 C739.040313,282.085428 737.066423,280.111656 737.066423,277.676885 C737.066423,275.242114 739.040313,273.268343 741.47523,273.268343 C743.910148,273.268343 745.884038,275.242114 745.884038,277.676885 Z M745.884038,260.042714 C745.884038,262.477485 743.910148,264.451257 741.47523,264.451257 C739.040313,264.451257 737.066423,262.477485 737.066423,260.042714 C737.066423,257.607943 739.040313,255.634171 741.47523,255.634171 C743.910148,255.634171 745.884038,257.607943 745.884038,260.042714 Z M745.884038,242.408543 C745.884038,244.843314 743.910148,246.817086 741.47523,246.817086 C739.040313,246.817086 737.066423,244.843314 737.066423,242.408543 C737.066423,239.973772 739.040313,238 741.47523,238 C743.910148,238 745.884038,239.973772 745.884038,242.408543 Z" id="Shape" fill="#CDCBDF"></path>
            <polygon id="Shape" fill="#E1DAFE" points="710.890277 120 710.890277 621.852306 610.890277 621.852306 610.890277 120 575.890277 120 660.890277 0 745.890277 120"></polygon>
            <g id="Plant" transform="translate(638.449572, 408.579804)">
                <path d="M45.0689032,343.094614 C30.5816108,312.193054 37.9513795,256.941776 63.7639654,212.233065 C102.482844,145.17 164.77231,135.762232 164.77231,135.762232 C164.77231,135.762232 186.248818,201.877934 144.968149,273.378151 C117.447702,321.044962 85.9102675,343.094614 45.0689032,343.094614 Z" id="Shape" fill="#FF6E6E"></path>
                <path d="M17.8047599,308.725022 C-2.13406144,254.070855 -4.49985816,198.366698 10.7073697,141.612551 C25.9145976,84.8584043 55.8155161,37.8000876 100.410125,0.437601339 C120.348947,55.0917682 122.714743,110.795925 107.507516,167.550072 C92.3002877,224.304219 62.3993691,271.362536 17.8047599,308.725022 Z" id="Shape" fill="#6937FF"></path>
                <polygon id="Shape" fill="#FFFFFF" fill-rule="nonzero" points="46.7518135 201.841611 72.2830818 177.826949 73.6533644 179.283769 45.9894774 205.304369 45.8606653 205.167422 25.1708298 282.382939 23.2389782 281.865301 54.442423 165.41246 43.7393054 129.857274 45.6544151 129.280772 55.4260347 161.741571 89.3265591 35.223091 91.2584108 35.7407291 67.4573372 124.567545 92.9886054 100.552883 94.358888 102.009703 66.695001 128.030303 66.5661889 127.893356 56.5214996 165.380647 56.6017444 165.647216 56.4367654 165.696879"></polygon>
            </g>
            <path d="M728.044068,845.153791 C728.044068,769.30942 728.044068,673.421802 728.044068,623.890277 C666.716123,623.890277 617,673.421802 617,734.522034 C617,795.622266 666.716123,845.153791 728.044068,845.153791 Z" id="Shape" fill="#221E41" transform="translate(672.522034, 734.522034) rotate(-270.000000) translate(-672.522034, -734.522034) "></path>
            <path d="M225.044068,864.153791 C225.044068,761.915477 225.044068,632.658839 225.044068,565.890277 C142.177017,565.890277 75,632.658839 75,715.022034 C75,797.385229 142.177017,864.153791 225.044068,864.153791 Z" id="Shape" fill="#E1DAFE" transform="translate(150.022034, 715.022034) rotate(-270.000000) translate(-150.022034, -715.022034) "></path>
        </g>
        <g id="Data" transform="translate(720.000000, 307.000000)">
            <path d="M28.8,-2.27373675e-13 L483.461909,-2.23820962e-13 C499.367709,-2.54997188e-13 512.261909,12.8941992 512.261909,28.8 L512.261909,595.691562 C512.261909,611.597363 499.367709,624.491562 483.461909,624.491562 L28.8,624.491562 C12.8941992,624.491562 -1.82793212e-13,611.597363 -1.84741111e-13,595.691562 L-1.66977543e-13,28.8 C-1.68925442e-13,12.8941992 12.8941992,-2.13793686e-13 28.8,-2.27373675e-13 Z" id="Shape" fill="#FFEBF7"></path>
            <polygon id="Shape" fill="#FFFFFF" points="31 98 480 98 480 388.163557 31 388.163557"></polygon>
            <path d="M31.2355694,429.737516 L312.121685,429.737516 L312.121685,464.948784 L31.2355694,464.948784 L31.2355694,429.737516 Z M31.2355694,491.357234 L480.187207,491.357234 L480.187207,526.568502 L31.2355694,526.568502 L31.2355694,491.357234 Z M31.2355694,552.976953 L480.187207,552.976953 L480.187207,588.18822 L31.2355694,588.18822 L31.2355694,552.976953 Z" id="Shape" fill="#FFD1EE"></path>
            <polygon id="Shape" fill="#FF6E6E" points="55 282 135 282 135 367 55 367"></polygon>
            <polygon id="Shape" fill="#FF6E6E" points="375 122 455 122 455 367 375 367"></polygon>
            <polygon id="Shape" fill="#A587FF" points="135 239 215 239 215 367 135 367"></polygon>
            <polygon id="Shape" fill="#6937FF" points="295 159 375 159 375 367 295 367"></polygon>
            <polygon id="Shape" fill="#00ADFF" points="215 196 295 196 295 367 215 367"></polygon>
            <path d="M28.8,2.34479103e-13 L483.461909,2.34479103e-13 C499.367709,2.31557255e-13 512.261909,12.8941992 512.261909,28.8 L512.261909,58.418694 L-7.95807864e-13,58.418694 L-7.9225515e-13,28.8 C-7.94203049e-13,12.8941992 12.8941992,2.33848237e-13 28.8,2.34479103e-13 Z" id="Shape" fill="#FFB4E3"></path>
        </g>
        <g id="Stairs" transform="translate(126.557819, 346.652624)" fill="#211D41" fill-rule="nonzero">
            <path d="M128.57212,55.8473759 L18.472659,55.8473759 L24.6239221,95.8473759 L134.723423,95.8473759 L128.57212,55.8473759 Z M127.034294,45.8473759 L120,0.105564569 L129.884361,-9.09494702e-13 L219.884361,585.245652 L210,585.347376 L205.463414,555.847376 L95.363448,555.847376 L99.8843614,585.245652 L90,585.245652 L-2.4158453e-13,0.105564569 L9.88436139,-3.41060513e-13 L16.9348432,45.8473759 L127.034294,45.8473759 Z M136.261249,105.847376 L26.1617379,105.847376 L32.313001,145.847376 L142.412553,145.847376 L136.261249,105.847376 L136.261249,105.847376 Z M143.950379,155.847376 L33.8508168,155.847376 L40.0020799,195.847376 L150.101682,195.847376 L143.950379,155.847376 Z M151.639508,205.847376 L41.5398957,205.847376 L47.6911588,245.847376 L157.790812,245.847376 L151.639508,205.847376 Z M159.328637,255.847376 L49.2289746,255.847376 L55.3802377,295.847376 L165.479941,295.847376 L159.328637,255.847376 L159.328637,255.847376 Z M167.017767,305.847376 L56.9180535,305.847376 L63.0693166,345.847376 L173.16907,345.847376 L167.017767,305.847376 Z M174.706896,355.847376 L64.6071324,355.847376 L70.7583955,395.847376 L180.8582,395.847376 L174.706896,355.847376 L174.706896,355.847376 Z M182.396026,405.847376 L72.2962113,405.847376 L78.4474744,445.847376 L188.547329,445.847376 L182.396026,405.847376 L182.396026,405.847376 Z M190.085155,455.847376 L79.9852902,455.847376 L86.1365534,495.847376 L196.236458,495.847376 L190.085155,455.847376 L190.085155,455.847376 Z M197.774284,505.847376 L87.6743691,505.847376 L93.8256323,545.847376 L203.925588,545.847376 L197.774284,505.847376 L197.774284,505.847376 Z" id="Shape"></path>
        </g>
        <g id="Bulb" transform="translate(217.000000, 142.000000)">
            <path d="M162.747777,676.414678 C147.901312,595.781849 117.824815,538.469283 84.6363636,502.052846 L85.2737674,501.862376 C32.557894,448.636896 0,375.402917 0,294.563008 C0,131.880351 131.852141,1.13686838e-13 294.5,1.13686838e-13 C457.147859,1.13686838e-13 589,131.880351 589,294.563008 C589,376.125702 555.857307,449.945849 502.307386,503.285259 C466.216301,544.386593 438.024871,599.204877 424.391051,677.080848 C418.574236,710.306322 168.952442,710.112918 162.747777,676.414678 Z" id="Shape" fill="#FFBCC1"></path>
            <path d="M534,281.796364 C534,365.915717 499.844457,442.049827 444.658037,497.06121 C407.463997,539.450904 378.41103,595.987519 364.360557,676.304586 C361.875754,690.508525 316.22091,698.790542 263.15624,701.144322 C210.824049,698.797467 165.351606,690.55637 162.747777,676.414678 C147.901312,595.781849 117.824815,538.469283 84.6363636,502.052846 L85.2737674,501.862376 C32.557894,448.636896 0,375.402917 0,294.563008 C0,131.880351 131.852141,-1.70530257e-13 294.5,-1.70530257e-13 C317.515656,-1.70530257e-13 339.914659,2.64076705 361.410665,7.63589533 C463.495401,56.5644262 534,160.938739 534,281.796364 Z" id="Shape" fill="#FFCFD3"></path>
            <path d="M169.272727,729.53252 L414.545455,729.53252 C414.545455,762.927787 387.473242,790 354.077975,790 L229.740207,790 C196.34494,790 169.272727,762.927787 169.272727,729.53252 Z" id="Shape" fill="#221E41"></path>
            <path d="M152.007273,645.678862 L431.810909,645.678862 C441.35439,645.678862 449.090909,653.415381 449.090909,662.958862 L449.090909,713.053333 C449.090909,722.596814 441.35439,730.333333 431.810909,730.333333 L152.007273,730.333333 C142.463792,730.333333 134.727273,722.596814 134.727273,713.053333 L134.727273,662.958862 C134.727273,653.415381 142.463792,645.678862 152.007273,645.678862 Z" id="Shape" fill="#FF8787"></path>
            <path d="M152.007273,645.678862 L370.090909,645.678862 L370.090909,730.333333 L152.007273,730.333333 C142.463792,730.333333 134.727273,722.596814 134.727273,713.053333 L134.727273,662.958862 C134.727273,653.415381 142.463792,645.678862 152.007273,645.678862 Z" id="Shape" fill="#FFA1A1"></path>
            <polygon id="Shape" fill="#FDE7E9" points="134.727273 680.231707 449.090909 680.231707 449.090909 695.780488 134.727273 695.780488"></polygon>
        </g>
        <g id="Men" transform="translate(16.457215, 219.457169)">
            <path d="M111.411356,183.042831 L105.258983,223.042831 L215.361044,223.042831 L221.512307,183.042831 L111.411356,183.042831 L111.411356,183.042831 Z M112.949449,173.042831 L223.050123,173.042831 L230.100605,127.195455 L239.984966,127.301019 L149.984966,712.441107 L140.100605,712.441107 L144.621518,683.042831 L34.5066951,683.042831 L29.9849662,712.441107 L20.1006048,712.441107 L110.100605,127.195455 L119.984966,127.301019 L112.949449,173.042831 Z M103.72089,233.042831 L97.568517,273.042831 L207.671965,273.042831 L213.823228,233.042831 L103.72089,233.042831 Z M96.0304238,283.042831 L89.8780509,323.042831 L199.982886,323.042831 L206.134149,283.042831 L96.0304238,283.042831 Z M88.3399577,333.042831 L82.1875848,373.042831 L192.293807,373.042831 L198.44507,333.042831 L88.3399577,333.042831 Z M80.6494916,383.042831 L74.4971188,423.042831 L184.604728,423.042831 L190.755992,383.042831 L80.6494916,383.042831 Z M72.9590255,433.042831 L66.8066527,473.042831 L176.91565,473.042831 L183.066913,433.042831 L72.9590255,433.042831 L72.9590255,433.042831 Z M65.2685595,483.042831 L59.1161866,523.042831 L169.226571,523.042831 L175.377834,483.042831 L65.2685595,483.042831 Z M57.5780934,533.042831 L51.4257205,573.042831 L161.537492,573.042831 L167.688755,533.042831 L57.5780934,533.042831 Z M49.8876273,583.042831 L43.7352544,623.042831 L153.848413,623.042831 L159.999676,583.042831 L49.8876273,583.042831 Z M42.1971612,633.042831 L36.0447883,673.042831 L146.159334,673.042831 L152.310597,633.042831 L42.1971612,633.042831 Z" id="Shape" fill="#757384" fill-rule="nonzero"></path>
            <path d="M13.7571496,154.074761 L35.2233683,174.859354 L26.6399926,196.25404 L46.150965,223.403802 L35.2233683,238.43332 L8.02248307,209.387868 C-0.404971774,200.388924 -2.39646394,187.119129 3.01815373,176.042807 L13.7571496,154.074761 Z" id="Shape" fill="#FF7070"></path>
            <polygon id="Shape" fill="#221E41" points="65.7310244 87.4848595 40.0573405 98.9416471 8.32705801 153.790683 29.3298986 180.416913 65.7310244 140.873434"></polygon>
            <polygon id="Shape" fill="#FE9F9F" points="45.5569327 534.325439 66.9820781 534.325439 66.9820781 555.716744 45.5569327 555.716744"></polygon>
            <polygon id="Shape" fill="#FE9F9F" points="121.350595 478.860025 145.631142 478.860025 139.372675 505.296805 117.947529 505.296805"></polygon>
            <path d="M116.887791,503.288809 L139.391419,503.288809 L153.646619,508.042432 C160.829807,510.584147 166.879797,511.621515 166.879797,519.583403 C166.879797,521.628689 165.523301,523.28672 163.849978,523.28672 L121.639791,523.28672 C119.015334,523.28672 116.887791,521.159177 116.887791,518.53472 L116.887791,503.288809 Z" id="Shape" fill="#211D41"></path>
            <polygon id="Shape" fill="#211D41" points="70.8454258 547.323479 42.9804993 547.323479 30.5491596 261.137741 100.736573 262.872123"></polygon>
            <path d="M147.447335,495.499607 L115.763157,491.652178 L128.656825,364.065819 L30.4793184,261.498801 L125.461235,263.062332 L170.515672,328.875015 C178.410948,340.407936 181.062713,354.741111 177.816188,368.335364 L147.447335,495.499607 Z" id="Shape" fill="#6937FF"></path>
            <path d="M144.174035,91.7447553 L204.17626,91.7447553 L288.308498,49.5200252 L296.272262,39.4594797 L296.272262,49.5200252 L316.374369,49.5200252 C314.433477,60.1862169 310.597902,66.810172 304.867646,69.3918906 C299.13739,71.9736091 290.860943,71.9736091 280.038304,69.3918906 L205.358833,123.451025 L144.174035,132.156624 L144.174035,91.7447553 Z" id="Shape" fill="#FE9F9F"></path>
            <path d="M44.3666469,553.339932 L66.8702745,553.339932 L81.1254747,558.093555 C88.3086634,560.63527 94.3586527,561.672638 94.3586527,569.634526 C94.3586527,571.679812 93.0021567,573.337843 91.3288342,573.337843 L49.1186469,573.337843 C46.4941898,573.337843 44.3666469,571.210301 44.3666469,568.585843 L44.3666469,553.339932 Z" id="Shape" fill="#211D41"></path>
            <path d="M96.9260473,89.0443182 C97.7147543,76.9811861 100.069139,70.1355925 103.989201,68.5075375 C109.869295,66.065455 113.643671,64.8416855 112.876161,58.6603915 C112.108651,52.4790975 113.771731,50.3975632 116.333146,49.1730708 C118.894561,47.9485783 120.951571,44.0218409 113.639419,39.8157963 C108.764652,37.0117667 105.96776,30.2797713 105.248744,19.6198104 C78.8873365,11.0147233 64.2718412,15.9481988 61.4022582,34.4202369 C58.5326753,52.8922751 60.4967562,67.3244896 67.2945009,77.7168804 L67.2945009,89.0443182 L96.9260473,89.0443182 Z" id="Shape" fill="#FE9F9F"></path>
            <path d="M159.993864,85.2364423 L159.993864,133.630991 L125.525976,133.630991 L125.525976,263.242815 L28.8314712,263.242815 L28.8314712,126.816442 C28.8314712,103.852442 47.4474713,85.2364423 70.4114712,85.2364423 C74.7686721,85.2364423 79.125873,85.2364423 83.4830739,85.2364423 C92.4455141,85.2364423 117.949111,85.2364423 159.993864,85.2364423 Z" id="Shape" fill="#00ADFF"></path>
            <path d="M66.894604,77.478405 C75.0160682,77.230169 79.6575535,75.8293933 80.8190599,73.276078 C82.5613196,69.4461052 82.789714,62.6178766 82.4011901,60.4628654 C82.0126662,58.3078543 79.5537042,59.2098418 77.612035,59.2098418 C75.6703659,59.2098418 72.6560501,54.8439191 74.6675681,51.5614236 C76.6790861,48.2789281 79.4618396,48.7930862 80.8190599,49.3759356 C82.1762802,49.958785 85.4400077,48.3263013 84.3465022,43.0255456 C83.2529967,37.7247899 80.8119325,32.7600687 84.3465022,32.7600687 C87.8810719,32.7600687 107.686446,30.4912038 108.731168,17.0605592 C109.775891,3.62991469 101.972943,-3.98013119 89.4446707,2.14744643 C76.9163983,8.27502404 72.8824336,7.70528123 63.4431876,9.8566604 C54.0039415,12.0080396 44.6071433,14.6489428 42.6184331,31.1872754 C40.6297229,47.725608 47.242707,56.1416315 54.8535307,62.1441436 C62.4643544,68.1466557 60.7208277,69.9860028 61.7750532,73.276078 C62.4778701,75.4694615 64.1843871,76.8702372 66.894604,77.478405 Z" id="Shape" fill="#221E41"></path>
            <path d="M83.5412495,269.629074 L84.2762616,268.965857 L88.9187834,274.110942 L88.1837713,274.774159 L83.5412495,269.629074 Z M94.8159448,282.124279 L95.5509569,281.461062 L100.193479,286.606146 L99.4584667,287.269364 L94.8159448,282.124279 Z M106.09064,294.619484 L106.825652,293.956267 L111.468174,299.101351 L110.733162,299.764569 L106.09064,294.619484 Z M117.365336,307.114689 L118.100348,306.451471 L122.742869,311.596556 L122.007857,312.259773 L117.365336,307.114689 Z M128.640031,319.609894 L129.375043,318.946676 L134.017565,324.091761 L133.282553,324.754978 L128.640031,319.609894 Z M139.914726,332.105098 L140.649738,331.441881 L145.29226,336.586966 L144.557248,337.250183 L139.914726,332.105098 Z M151.189422,344.600303 L151.924434,343.937086 L152.516004,344.592695 C153.908044,346.135426 155.074283,347.856592 155.987889,349.708364 L155.100063,350.146389 C154.226685,348.376153 153.111816,346.730801 151.780992,345.255912 L151.189422,344.600303 Z M157.319857,359.550799 L158.309843,359.545659 C158.317472,361.015021 158.181014,362.484598 157.900412,363.935061 L157.412668,366.456266 L156.440689,366.268231 L156.928433,363.747025 C157.196699,362.360328 157.327149,360.955454 157.319857,359.550799 Z M154.56033,375.988017 L155.532309,376.176053 L154.216057,382.979903 L153.244079,382.791868 L154.56033,375.988017 Z M151.36372,392.511654 L152.335699,392.69969 L151.019447,399.503541 L150.047469,399.315505 L151.36372,392.511654 Z M148.16711,409.035291 L149.139088,409.223327 L147.822837,416.027178 L146.850859,415.839142 L148.16711,409.035291 Z M144.9705,425.558928 L145.942478,425.746964 L144.626227,432.550815 L143.654248,432.362779 L144.9705,425.558928 Z M141.77389,442.082565 L142.745868,442.270601 L141.429617,449.074452 L140.457638,448.886416 L141.77389,442.082565 Z M138.57728,458.606202 L139.549258,458.794238 L138.233007,465.598089 L137.261028,465.410053 L138.57728,458.606202 Z M135.380669,475.129839 L136.352648,475.317875 L135.307298,480.721406 L134.335319,480.533371 L135.380669,475.129839 Z" id="Shape" fill="#A587FF" fill-rule="nonzero"></path>
        </g>
        <g id="Gear" transform="translate(653.000000, 73.000000)" fill="#A587FF">
            <path d="M52.7977022,102.23082 L32.2220768,70.6815277 C31.1887846,69.0971463 31.406565,67.0055565 32.7440921,65.6680295 L65.6680295,32.7440921 C67.0055565,31.406565 69.0971463,31.1887846 70.6815277,32.2220768 L102.23082,52.7977022 C111.816918,47.3131772 122.153289,42.9906807 133.047958,40.0221879 L140.805061,3.17595808 C141.19474,1.32498335 142.827712,8.56126002e-14 144.719261,8.52651283e-14 L191.280739,8.61533067e-14 C193.172288,7.90857033e-14 194.80526,1.32498335 195.194939,3.17595808 L202.952035,40.0221644 C213.846711,42.9906807 224.183082,47.3131772 233.76918,52.7977022 L265.318472,32.2220768 C266.902854,31.1887846 268.994444,31.406565 270.331971,32.7440921 L303.255908,65.6680295 C304.593435,67.0055565 304.811215,69.0971463 303.777923,70.6815277 L283.202298,102.23082 C288.686823,111.816918 293.00932,122.15329 295.977812,133.047959 L332.824042,140.805061 C334.675017,141.19474 336,142.827712 336,144.719261 L336,191.280739 C336,193.172288 334.675017,194.80526 332.824042,195.194939 L295.977819,202.952038 C293.00932,213.84671 288.686823,224.183082 283.202298,233.76918 L305.550877,268.037001 L270.331971,303.255908 C268.994444,304.593435 266.902854,304.811215 265.318472,303.777923 L233.76918,283.202298 C224.183082,288.686823 213.846711,293.009319 202.952042,295.977812 L195.194939,332.824042 C194.80526,334.675017 193.172288,336 191.280739,336 L144.719261,336 C142.827712,336 141.19474,334.675017 140.805061,332.824042 L133.047965,295.977836 C122.153289,293.009319 111.816918,288.686823 102.23082,283.202298 L70.6815277,303.777923 C69.0971463,304.811215 67.0055565,304.593435 65.6680295,303.255908 L32.7440921,270.331971 C31.406565,268.994444 31.1887846,266.902854 32.2220768,265.318472 L52.7977022,233.76918 C47.313177,224.183082 42.9906804,213.84671 40.0221876,202.952041 L3.17595808,195.194939 C1.32498335,194.80526 1.13686838e-12,193.172288 1.13686838e-12,191.280739 L1.13686838e-12,144.719261 C1.13686838e-12,142.827712 1.32498335,141.19474 3.17595808,140.805061 L40.0221809,133.047962 C42.9906804,122.15329 47.313177,111.816918 52.7977022,102.23082 L52.7977022,102.23082 Z M168,230 C202.241654,230 230,202.241654 230,168 C230,133.758346 202.241654,106 168,106 C133.758346,106 106,133.758346 106,168 C106,202.241654 133.758346,230 168,230 Z" id="Shape"></path>
        </g>
    </g>
</svg>