<svg xmlns="http://www.w3.org/2000/svg" xmlns:xlink="http://www.w3.org/1999/xlink" viewBox="0 0 456.01 262.12"><defs><style>.cls-1,.cls-19,.cls-2,.cls-20,.cls-21,.cls-28,.cls-29,.cls-3,.cls-30,.cls-31,.cls-32,.cls-33,.cls-34,.cls-35,.cls-36,.cls-37,.cls-38,.cls-39,.cls-4,.cls-5,.cls-6{fill:none;stroke-miterlimit:10;}.cls-1,.cls-2,.cls-3,.cls-4,.cls-5,.cls-6{stroke-width:2px;}.cls-1{stroke:url(#未命名的渐变_26);}.cls-2{stroke:url(#未命名的渐变_26-2);}.cls-3{stroke:url(#未命名的渐变_26-3);}.cls-4{stroke:url(#未命名的渐变_26-4);}.cls-5{stroke:url(#未命名的渐变_26-5);}.cls-6{stroke:url(#未命名的渐变_26-6);}.cls-10,.cls-11,.cls-12,.cls-7,.cls-9{opacity:0.4;}.cls-7{fill:url(#未命名的渐变_26-7);}.cls-8{opacity:0.7;}.cls-9{fill:url(#未命名的渐变_26-8);}.cls-10{fill:url(#未命名的渐变_26-9);}.cls-11{fill:url(#未命名的渐变_26-10);}.cls-12{fill:url(#未命名的渐变_26-11);}.cls-13{fill:#ebfcff;}.cls-14{fill:#ffb056;}.cls-15{fill:#257fba;}.cls-16{fill:#e49056;}.cls-17{fill:#398eed;}.cls-18{fill:#ffeed2;}.cls-19{stroke:#e49056;stroke-width:0.26px;}.cls-20{stroke:#3972d9;stroke-width:0.27px;}.cls-21{stroke:#4986d9;stroke-width:0.1px;}.cls-22{fill:#e55c5c;opacity:0.2;}.cls-23{fill:#50beff;}.cls-24{fill:#67c8ff;}.cls-25{fill:#82d2fc;}.cls-26{fill:#5fc0ff;}.cls-27{fill:#8cd7ff;}.cls-28{stroke:url(#未命名的渐变_26-12);}.cls-29{stroke:url(#未命名的渐变_26-13);}.cls-30{stroke:url(#未命名的渐变_26-14);}.cls-31{stroke:url(#未命名的渐变_26-15);}.cls-32{stroke:url(#未命名的渐变_26-16);}.cls-33{stroke:url(#未命名的渐变_26-17);}.cls-34{stroke:url(#未命名的渐变_26-18);}.cls-35{stroke:url(#未命名的渐变_26-19);}.cls-36{stroke:url(#未命名的渐变_26-20);}.cls-37{stroke:url(#未命名的渐变_26-21);}.cls-38{stroke:url(#未命名的渐变_26-22);}.cls-39{stroke:url(#未命名的渐变_26-23);}</style><linearGradient id="未命名的渐变_26" x1="1" y1="91.35" x2="1" y2="181.12" gradientUnits="userSpaceOnUse"><stop offset="0" stop-color="#81cfff"/><stop offset="1" stop-color="#5ecfff" stop-opacity="0"/></linearGradient><linearGradient id="未命名的渐变_26-2" x1="455.01" y1="72.11" x2="455.01" y2="161.88" xlink:href="#未命名的渐变_26"/><linearGradient id="未命名的渐变_26-3" x1="40.9" y1="143.88" x2="40.9" y2="199.51" xlink:href="#未命名的渐变_26"/><linearGradient id="未命名的渐变_26-4" x1="64.97" y1="95.36" x2="64.97" y2="123.17" xlink:href="#未命名的渐变_26"/><linearGradient id="未命名的渐变_26-5" x1="397.23" y1="104.2" x2="397.23" y2="132.02" xlink:href="#未命名的渐变_26"/><linearGradient id="未命名的渐变_26-6" x1="424.75" y1="133.49" x2="424.75" y2="189.13" xlink:href="#未命名的渐变_26"/><linearGradient id="未命名的渐变_26-7" x1="232.75" y1="224.43" x2="232.75" y2="262.12" xlink:href="#未命名的渐变_26"/><linearGradient id="未命名的渐变_26-8" x1="349.36" y1="26.68" x2="349.36" y2="204.03" xlink:href="#未命名的渐变_26"/><linearGradient id="未命名的渐变_26-9" x1="201.45" y1="55.61" x2="201.45" y2="204.03" xlink:href="#未命名的渐变_26"/><linearGradient id="未命名的渐变_26-10" x1="122.98" y1="26.68" x2="122.98" y2="204.03" xlink:href="#未命名的渐变_26"/><linearGradient id="未命名的渐变_26-11" x1="273.51" y1="0" x2="273.51" y2="209.54" xlink:href="#未命名的渐变_26"/><linearGradient id="未命名的渐变_26-12" x1="199.58" y1="136.83" x2="199.58" y2="167.13" xlink:href="#未命名的渐变_26"/><linearGradient id="未命名的渐变_26-13" x1="256.14" y1="119.18" x2="256.14" y2="162.02" xlink:href="#未命名的渐变_26"/><linearGradient id="未命名的渐变_26-14" x1="218.28" y1="129.87" x2="218.28" y2="142.39" xlink:href="#未命名的渐变_26"/><linearGradient id="未命名的渐变_26-15" x1="241.1" y1="134.98" x2="241.1" y2="152.39" xlink:href="#未命名的渐变_26"/><linearGradient id="未命名的渐变_26-16" x1="218.28" y1="151.96" x2="218.28" y2="169.37" xlink:href="#未命名的渐变_26"/><linearGradient id="未命名的渐变_26-17" x1="288.94" y1="126.27" x2="288.94" y2="149.6" xlink:href="#未命名的渐变_26"/><linearGradient id="未命名的渐变_26-18" x1="272.87" y1="161.14" x2="272.87" y2="167.73" xlink:href="#未命名的渐变_26"/><linearGradient id="未命名的渐变_26-19" x1="199.58" y1="122.98" x2="199.58" y2="129.57" xlink:href="#未命名的渐变_26"/><linearGradient id="未命名的渐变_26-20" x1="180.88" y1="129.18" x2="180.88" y2="152.39" xlink:href="#未命名的渐变_26"/><linearGradient id="未命名的渐变_26-21" x1="298.98" y1="132.48" x2="298.98" y2="139.08" xlink:href="#未命名的渐变_26"/><linearGradient id="未命名的渐变_26-22" x1="186.42" y1="114.18" x2="186.42" y2="145.19" xlink:href="#未命名的渐变_26"/><linearGradient id="未命名的渐变_26-23" x1="272.87" y1="114.95" x2="272.87" y2="154.03" xlink:href="#未命名的渐变_26"/></defs><title>暂无收藏</title><g id="图层_2" data-name="图层 2"><g id="图层_1-2" data-name="图层 1"><line class="cls-1" x1="1" y1="91.35" x2="1" y2="181.12"/><line class="cls-2" x1="455.01" y1="72.11" x2="455.01" y2="161.88"/><line class="cls-3" x1="40.9" y1="143.88" x2="40.9" y2="199.51"/><line class="cls-4" x1="64.97" y1="95.36" x2="64.97" y2="123.17"/><line class="cls-5" x1="397.23" y1="104.2" x2="397.23" y2="132.02"/><line class="cls-6" x1="424.75" y1="133.49" x2="424.75" y2="189.13"/><path class="cls-7" d="M412.28,262.12c-23-23-61-37.69-179.53-37.69S76.24,239.1,53.21,262.12Z"/><g class="cls-8"><path class="cls-9" d="M380.66,26.68H318.07a2.71,2.71,0,0,0-2.82,2.59V201.44a2.71,2.71,0,0,0,2.82,2.59h62.59a2.72,2.72,0,0,0,2.82-2.59V29.27A2.72,2.72,0,0,0,380.66,26.68ZM328.3,147a.9.9,0,0,1-.95.87h-3.6a.9.9,0,0,1-.95-.87V127.27a.91.91,0,0,1,.95-.87h3.6a.91.91,0,0,1,.95.87Zm0-30.23a.91.91,0,0,1-.95.87h-3.6a.91.91,0,0,1-.95-.87V97a.91.91,0,0,1,.95-.87h3.6a.91.91,0,0,1,.95.87Zm0-30.24a.91.91,0,0,1-.95.87h-3.6a.91.91,0,0,1-.95-.87V66.8a.91.91,0,0,1,.95-.87h3.6a.91.91,0,0,1,.95.87Zm0-30.24a.91.91,0,0,1-.95.87h-3.6a.91.91,0,0,1-.95-.87V36.56a.91.91,0,0,1,.95-.87h3.6a.91.91,0,0,1,.95.87ZM340,147a.9.9,0,0,1-.94.87h-3.61a.91.91,0,0,1-.95-.87V127.27a.92.92,0,0,1,.95-.87h3.61a.91.91,0,0,1,.94.87Zm0-30.23a.91.91,0,0,1-.94.87h-3.61a.92.92,0,0,1-.95-.87V97a.92.92,0,0,1,.95-.87h3.61A.91.91,0,0,1,340,97Zm0-30.24a.91.91,0,0,1-.94.87h-3.61a.92.92,0,0,1-.95-.87V66.8a.92.92,0,0,1,.95-.87h3.61a.91.91,0,0,1,.94.87Zm0-30.24a.91.91,0,0,1-.94.87h-3.61a.92.92,0,0,1-.95-.87V36.56a.92.92,0,0,1,.95-.87h3.61a.91.91,0,0,1,.94.87ZM351.7,147a.9.9,0,0,1-.94.87h-3.61a.9.9,0,0,1-.94-.87V127.27a.91.91,0,0,1,.94-.87h3.61a.91.91,0,0,1,.94.87Zm0-30.23a.91.91,0,0,1-.94.87h-3.61a.91.91,0,0,1-.94-.87V97a.91.91,0,0,1,.94-.87h3.61a.91.91,0,0,1,.94.87Zm0-30.24a.91.91,0,0,1-.94.87h-3.61a.91.91,0,0,1-.94-.87V66.8a.91.91,0,0,1,.94-.87h3.61a.91.91,0,0,1,.94.87Zm0-30.24a.91.91,0,0,1-.94.87h-3.61a.91.91,0,0,1-.94-.87V36.56a.91.91,0,0,1,.94-.87h3.61a.91.91,0,0,1,.94.87ZM363.4,147a.9.9,0,0,1-.94.87h-3.61a.9.9,0,0,1-.94-.87V127.27a.91.91,0,0,1,.94-.87h3.61a.91.91,0,0,1,.94.87Zm0-30.23a.91.91,0,0,1-.94.87h-3.61a.91.91,0,0,1-.94-.87V97a.91.91,0,0,1,.94-.87h3.61a.91.91,0,0,1,.94.87Zm0-30.24a.91.91,0,0,1-.94.87h-3.61a.91.91,0,0,1-.94-.87V66.8a.91.91,0,0,1,.94-.87h3.61a.91.91,0,0,1,.94.87Zm0-30.24a.91.91,0,0,1-.94.87h-3.61a.91.91,0,0,1-.94-.87V36.56a.91.91,0,0,1,.94-.87h3.61a.91.91,0,0,1,.94.87ZM375.11,147a.91.91,0,0,1-.95.87h-3.61a.9.9,0,0,1-.94-.87V127.27a.91.91,0,0,1,.94-.87h3.61a.92.92,0,0,1,.95.87Zm0-30.23a.92.92,0,0,1-.95.87h-3.61a.91.91,0,0,1-.94-.87V97a.91.91,0,0,1,.94-.87h3.61a.92.92,0,0,1,.95.87Zm0-30.24a.92.92,0,0,1-.95.87h-3.61a.91.91,0,0,1-.94-.87V66.8a.91.91,0,0,1,.94-.87h3.61a.92.92,0,0,1,.95.87Zm0-30.24a.92.92,0,0,1-.95.87h-3.61a.91.91,0,0,1-.94-.87V36.56a.91.91,0,0,1,.94-.87h3.61a.92.92,0,0,1,.95.87Z"/><path class="cls-10" d="M231.1,55.61H171.8A2.71,2.71,0,0,0,169,58.2V201.44A2.71,2.71,0,0,0,171.8,204h59.3a2.71,2.71,0,0,0,2.82-2.59V58.2A2.71,2.71,0,0,0,231.1,55.61ZM182.47,159.37a1.16,1.16,0,0,1-1.2,1.11h-5.4a1.16,1.16,0,0,1-1.2-1.11v-5.22a1.15,1.15,0,0,1,1.2-1.1h5.4a1.15,1.15,0,0,1,1.2,1.1Zm0-12.88a1.15,1.15,0,0,1-1.2,1.1h-5.4a1.15,1.15,0,0,1-1.2-1.1v-5.22a1.16,1.16,0,0,1,1.2-1.11h5.4a1.16,1.16,0,0,1,1.2,1.11Zm0-12.89a1.16,1.16,0,0,1-1.2,1.11h-5.4a1.16,1.16,0,0,1-1.2-1.11v-5.22a1.15,1.15,0,0,1,1.2-1.1h5.4a1.15,1.15,0,0,1,1.2,1.1Zm0-12.88a1.15,1.15,0,0,1-1.2,1.1h-5.4a1.15,1.15,0,0,1-1.2-1.1V115.5a1.16,1.16,0,0,1,1.2-1.11h5.4a1.16,1.16,0,0,1,1.2,1.11Zm0-12.89a1.16,1.16,0,0,1-1.2,1.11h-5.4a1.16,1.16,0,0,1-1.2-1.11v-5.21a1.15,1.15,0,0,1,1.2-1.11h5.4a1.15,1.15,0,0,1,1.2,1.11Zm0-12.88a1.15,1.15,0,0,1-1.2,1.1h-5.4a1.15,1.15,0,0,1-1.2-1.1V89.73a1.16,1.16,0,0,1,1.2-1.11h5.4a1.16,1.16,0,0,1,1.2,1.11Zm0-12.89a1.16,1.16,0,0,1-1.2,1.11h-5.4a1.16,1.16,0,0,1-1.2-1.11V76.85a1.15,1.15,0,0,1,1.2-1.11h5.4a1.15,1.15,0,0,1,1.2,1.11Zm0-12.88a1.15,1.15,0,0,1-1.2,1.1h-5.4a1.15,1.15,0,0,1-1.2-1.1V64a1.16,1.16,0,0,1,1.2-1.11h5.4a1.16,1.16,0,0,1,1.2,1.11Zm10.08,90.19a1.16,1.16,0,0,1-1.2,1.11H186a1.16,1.16,0,0,1-1.21-1.11v-5.22a1.16,1.16,0,0,1,1.21-1.1h5.4a1.15,1.15,0,0,1,1.2,1.1Zm0-12.88a1.15,1.15,0,0,1-1.2,1.1H186a1.16,1.16,0,0,1-1.21-1.1v-5.22a1.16,1.16,0,0,1,1.21-1.11h5.4a1.16,1.16,0,0,1,1.2,1.11Zm0-12.89a1.16,1.16,0,0,1-1.2,1.11H186a1.16,1.16,0,0,1-1.21-1.11v-5.22a1.16,1.16,0,0,1,1.21-1.1h5.4a1.15,1.15,0,0,1,1.2,1.1Zm0-12.88a1.15,1.15,0,0,1-1.2,1.1H186a1.16,1.16,0,0,1-1.21-1.1V115.5a1.16,1.16,0,0,1,1.21-1.11h5.4a1.16,1.16,0,0,1,1.2,1.11Zm0-12.89a1.16,1.16,0,0,1-1.2,1.11H186a1.16,1.16,0,0,1-1.21-1.11v-5.21a1.16,1.16,0,0,1,1.21-1.11h5.4a1.15,1.15,0,0,1,1.2,1.11Zm0-12.88a1.15,1.15,0,0,1-1.2,1.1H186a1.16,1.16,0,0,1-1.21-1.1V89.73A1.16,1.16,0,0,1,186,88.62h5.4a1.16,1.16,0,0,1,1.2,1.11Zm0-12.89a1.16,1.16,0,0,1-1.2,1.11H186a1.16,1.16,0,0,1-1.21-1.11V76.85A1.16,1.16,0,0,1,186,75.74h5.4a1.15,1.15,0,0,1,1.2,1.11Zm0-12.88a1.15,1.15,0,0,1-1.2,1.1H186a1.16,1.16,0,0,1-1.21-1.1V64A1.16,1.16,0,0,1,186,62.85h5.4a1.16,1.16,0,0,1,1.2,1.11Zm10.08,90.19a1.16,1.16,0,0,1-1.21,1.11H196a1.16,1.16,0,0,1-1.2-1.11v-5.22a1.15,1.15,0,0,1,1.2-1.1h5.4a1.16,1.16,0,0,1,1.21,1.1Zm0-12.88a1.16,1.16,0,0,1-1.21,1.1H196a1.15,1.15,0,0,1-1.2-1.1v-5.22a1.16,1.16,0,0,1,1.2-1.11h5.4a1.16,1.16,0,0,1,1.21,1.11Zm0-12.89a1.16,1.16,0,0,1-1.21,1.11H196a1.16,1.16,0,0,1-1.2-1.11v-5.22a1.15,1.15,0,0,1,1.2-1.1h5.4a1.16,1.16,0,0,1,1.21,1.1Zm0-12.88a1.16,1.16,0,0,1-1.21,1.1H196a1.15,1.15,0,0,1-1.2-1.1V115.5a1.16,1.16,0,0,1,1.2-1.11h5.4a1.16,1.16,0,0,1,1.21,1.11Zm0-12.89a1.16,1.16,0,0,1-1.21,1.11H196a1.16,1.16,0,0,1-1.2-1.11v-5.21a1.15,1.15,0,0,1,1.2-1.11h5.4a1.16,1.16,0,0,1,1.21,1.11Zm0-12.88a1.16,1.16,0,0,1-1.21,1.1H196a1.15,1.15,0,0,1-1.2-1.1V89.73a1.16,1.16,0,0,1,1.2-1.11h5.4a1.16,1.16,0,0,1,1.21,1.11Zm0-12.89a1.16,1.16,0,0,1-1.21,1.11H196a1.16,1.16,0,0,1-1.2-1.11V76.85a1.15,1.15,0,0,1,1.2-1.11h5.4a1.16,1.16,0,0,1,1.21,1.11Zm0-12.88a1.16,1.16,0,0,1-1.21,1.1H196a1.15,1.15,0,0,1-1.2-1.1V64a1.16,1.16,0,0,1,1.2-1.11h5.4A1.16,1.16,0,0,1,202.63,64Zm25.21,90.19a1.16,1.16,0,0,1-1.2,1.11H206.1a1.16,1.16,0,0,1-1.2-1.11v-5.22a1.15,1.15,0,0,1,1.2-1.1h20.54a1.15,1.15,0,0,1,1.2,1.1Zm0-12.88a1.15,1.15,0,0,1-1.2,1.1H206.1a1.15,1.15,0,0,1-1.2-1.1v-5.22a1.16,1.16,0,0,1,1.2-1.11h20.54a1.16,1.16,0,0,1,1.2,1.11Zm0-12.89a1.16,1.16,0,0,1-1.2,1.11H206.1a1.16,1.16,0,0,1-1.2-1.11v-5.22a1.15,1.15,0,0,1,1.2-1.1h20.54a1.15,1.15,0,0,1,1.2,1.1Zm0-12.88a1.15,1.15,0,0,1-1.2,1.1H206.1a1.15,1.15,0,0,1-1.2-1.1V115.5a1.16,1.16,0,0,1,1.2-1.11h20.54a1.16,1.16,0,0,1,1.2,1.11Zm0-12.89a1.16,1.16,0,0,1-1.2,1.11H206.1a1.16,1.16,0,0,1-1.2-1.11v-5.21a1.15,1.15,0,0,1,1.2-1.11h20.54a1.15,1.15,0,0,1,1.2,1.11Zm0-12.88a1.15,1.15,0,0,1-1.2,1.1H206.1a1.15,1.15,0,0,1-1.2-1.1V89.73a1.16,1.16,0,0,1,1.2-1.11h20.54a1.16,1.16,0,0,1,1.2,1.11Zm0-12.89a1.16,1.16,0,0,1-1.2,1.11H206.1a1.16,1.16,0,0,1-1.2-1.11V76.85a1.15,1.15,0,0,1,1.2-1.11h20.54a1.15,1.15,0,0,1,1.2,1.11Zm0-12.88a1.15,1.15,0,0,1-1.2,1.1H206.1a1.15,1.15,0,0,1-1.2-1.1V64a1.16,1.16,0,0,1,1.2-1.11h20.54a1.16,1.16,0,0,1,1.2,1.11Z"/><path class="cls-11" d="M161.13,26.68H84.83A2.71,2.71,0,0,0,82,29.27V201.44A2.71,2.71,0,0,0,84.83,204h76.3a2.71,2.71,0,0,0,2.82-2.59V29.27A2.71,2.71,0,0,0,161.13,26.68ZM154.34,161a1.16,1.16,0,0,1-1.2,1.11H92.83A1.16,1.16,0,0,1,91.62,161v-5.21a1.16,1.16,0,0,1,1.21-1.11h60.31a1.15,1.15,0,0,1,1.2,1.11Zm0-14.67a1.15,1.15,0,0,1-1.2,1.1H92.83a1.16,1.16,0,0,1-1.21-1.1v-5.22A1.16,1.16,0,0,1,92.83,140h60.31a1.16,1.16,0,0,1,1.2,1.11Zm0-14.68a1.16,1.16,0,0,1-1.2,1.11H92.83a1.16,1.16,0,0,1-1.21-1.11v-5.22a1.16,1.16,0,0,1,1.21-1.1h60.31a1.15,1.15,0,0,1,1.2,1.1Zm0-14.68a1.16,1.16,0,0,1-1.2,1.11H92.83a1.16,1.16,0,0,1-1.21-1.11v-5.21a1.16,1.16,0,0,1,1.21-1.11h60.31a1.15,1.15,0,0,1,1.2,1.11Zm0-14.67a1.15,1.15,0,0,1-1.2,1.1H92.83a1.16,1.16,0,0,1-1.21-1.1V97a1.16,1.16,0,0,1,1.21-1.11h60.31a1.16,1.16,0,0,1,1.2,1.11Zm0-14.68a1.16,1.16,0,0,1-1.2,1.11H92.83a1.16,1.16,0,0,1-1.21-1.11V82.35a1.16,1.16,0,0,1,1.21-1.1h60.31a1.15,1.15,0,0,1,1.2,1.1Zm0-14.68a1.16,1.16,0,0,1-1.2,1.11H92.83a1.16,1.16,0,0,1-1.21-1.11V67.68a1.16,1.16,0,0,1,1.21-1.11h60.31a1.15,1.15,0,0,1,1.2,1.11Zm0-14.67a1.15,1.15,0,0,1-1.2,1.1H92.83a1.16,1.16,0,0,1-1.21-1.1V53a1.16,1.16,0,0,1,1.21-1.11h60.31a1.16,1.16,0,0,1,1.2,1.11Zm0-14.68a1.16,1.16,0,0,1-1.2,1.11H92.83a1.16,1.16,0,0,1-1.21-1.11V38.32a1.16,1.16,0,0,1,1.21-1.1h60.31a1.15,1.15,0,0,1,1.2,1.1Z"/><path class="cls-12" d="M306.21,0H240.82a2.51,2.51,0,0,0-2.42,2.59V206.94a2.51,2.51,0,0,0,2.42,2.6h65.39a2.51,2.51,0,0,0,2.41-2.6V2.59A2.51,2.51,0,0,0,306.21,0Zm-5.82,134.28a1.06,1.06,0,0,1-1,1.1H247.67a1.06,1.06,0,0,1-1-1.1v-5.22a1.07,1.07,0,0,1,1-1.11h51.69a1.07,1.07,0,0,1,1,1.11Zm0-14.68a1.07,1.07,0,0,1-1,1.11H247.67a1.07,1.07,0,0,1-1-1.11v-5.22a1.06,1.06,0,0,1,1-1.1h51.69a1.06,1.06,0,0,1,1,1.1Zm0-14.68a1.07,1.07,0,0,1-1,1.11H247.67a1.07,1.07,0,0,1-1-1.11V99.71a1.07,1.07,0,0,1,1-1.11h51.69a1.07,1.07,0,0,1,1,1.11Zm0-14.67a1.06,1.06,0,0,1-1,1.1H247.67a1.06,1.06,0,0,1-1-1.1V85a1.07,1.07,0,0,1,1-1.11h51.69a1.07,1.07,0,0,1,1,1.11Zm0-14.68a1.07,1.07,0,0,1-1,1.11H247.67a1.07,1.07,0,0,1-1-1.11V70.35a1.06,1.06,0,0,1,1-1.1h51.69a1.06,1.06,0,0,1,1,1.1Zm0-14.68a1.07,1.07,0,0,1-1,1.11H247.67a1.07,1.07,0,0,1-1-1.11V55.68a1.07,1.07,0,0,1,1-1.11h51.69a1.07,1.07,0,0,1,1,1.11Zm0-14.67a1.06,1.06,0,0,1-1,1.1H247.67a1.06,1.06,0,0,1-1-1.1V41a1.07,1.07,0,0,1,1-1.11h51.69a1.07,1.07,0,0,1,1,1.11Zm0-14.68a1.07,1.07,0,0,1-1,1.11H247.67a1.07,1.07,0,0,1-1-1.11V26.32a1.06,1.06,0,0,1,1-1.1h51.69a1.06,1.06,0,0,1,1,1.1Zm0-14.68a1.07,1.07,0,0,1-1,1.11H247.67a1.07,1.07,0,0,1-1-1.11V11.65a1.07,1.07,0,0,1,1-1.11h51.69a1.07,1.07,0,0,1,1,1.11Z"/></g><path d="M345.64,157.74a3.53,3.53,0,0,1,.73-2.31c.91-.84,3.64-.13,4.05.14.79.29,1.4,1.45,1.9,1.85,2.16-.4,3.24,1.6,3.49,3.86s.69,3.18,3,5.54,10,3,11.64,9.71-3.49,8.9-6.23,8.31-2.63-3.19-4.12-4.05-3-.14-4.48-1.86.91-7.49-1.2-8.87-3.35.44-5.5-.9a1.86,1.86,0,0,1-.9-2,4.41,4.41,0,0,1,1.46-2.42c.57-.34-1.16-.87-.39-1.5s.55-2.38.39-2.72-1.63-.12-2.92-.55C345.89,159.7,345.62,158.73,345.64,157.74Z"/><path class="cls-13" d="M345.07,238.88a17.77,17.77,0,0,1-2.33,3.11c-.29.12-.85-.16-1.31.27a9.53,9.53,0,0,0-1.93,2.64c-.21.74-4.25,4.53-5.25,4.22a3.93,3.93,0,0,0,.55.21c1.18.37,4.3-2.92,4.8-3.44s.77-1.83,1.63-2.72,1.18-.38,1.57-.4,2.21-2,2.81-3.15C345.67,239.54,345.42,239.24,345.07,238.88Z"/><path class="cls-13" d="M351.45,229.37c.18.75-1.44,5.94-2.47,6.18l.38-.05c1.22-.25,2.38-4.63,2.57-5.32s-.21-2,.13-3.18.86-.89,1.18-1.09,1-2.86,1-4.12c0-.1-.37-.24-.87-.39a18.17,18.17,0,0,1-.49,3.84c-.2.25-.83.28-1,.88A9.37,9.37,0,0,0,351.45,229.37Z"/><path class="cls-14" d="M336.73,243.65c-.62,1.16-3.92,3.45-3.83,4a2.38,2.38,0,0,0,1.35,1.49c1,.31,5-3.48,5.25-4.22a9.53,9.53,0,0,1,1.93-2.64c.46-.43,1-.15,1.31-.27a17.77,17.77,0,0,0,2.33-3.11c-.37-.37-.84-.82-1.18-1.19-.65-.7-1.51-.37-1.37-.74s0-.45-.6-.91a1.87,1.87,0,0,0-.48.88l.12.52a2.15,2.15,0,0,1-2.2,1.54C339.38,239.66,337.36,242.48,336.73,243.65Z"/><path class="cls-14" d="M348.34,229.58c0,1.32-1.8,4.9-1.46,5.33a2.47,2.47,0,0,0,2.1.64c1-.24,2.65-5.43,2.47-6.18a9.37,9.37,0,0,1,.38-3.25c.19-.6.82-.63,1-.88a18.17,18.17,0,0,0,.49-3.84c-.49-.16-1.11-.32-1.57-.47-.91-.31-1.5.39-1.55,0s-.21-.4-1-.52a1.83,1.83,0,0,0,0,1l.49.35a2.51,2.51,0,0,1-1.33,2.81C348.75,225.16,348.33,228.26,348.34,229.58Z"/><polygon class="cls-15" points="335.89 211.09 335.43 212.77 337.33 220.02 346.11 226.59 347.18 223.79 348.34 220.77 348.59 220.12 335.89 211.09"/><path class="cls-16" d="M330.12,171.62l3.6,1.89c.09-.16.19-.31.28-.44-1.48-.81-2.48-1.42-2.48-1.42l2.43-4.51-1.77-1.43-.74,2.11Z"/><path class="cls-14" d="M331.52,171.65s1,.61,2.48,1.42c3.28,1.79,8.94,4.56,11.45,3.92a4.83,4.83,0,0,0,1.56-.69c2.26-1.52,2.6-4.57,1.84-5.61a4.87,4.87,0,0,1-.67-1.35h0c-.48.57-2.7.4-4.11-1s-.61-2.1-.28-2.4v0c-1.09.35-4.14-.36-6.72-1.09l-1.35-1-.15.28-1.61,3Z"/><path class="cls-14" d="M330.05,187.28a5.32,5.32,0,0,0,.47.48c2.71,2.51,8.37,2.56,10.07,1.65.18-.1.35-.18.53-.26a6.12,6.12,0,0,1,4.24-.59c-1.08-1.74-2.06-7.51,1.65-12.26a4.83,4.83,0,0,1-1.56.69c-2.51.64-8.17-2.13-11.45-3.92-.09.13-.19.28-.28.44C332,176.28,330.19,183,330.05,187.28Z"/><path class="cls-17" d="M323.6,208.69l7-19.73a6.77,6.77,0,0,0-.07-1.2c2.71,2.51,8.37,2.56,10.07,1.65.18-.1.35-.18.53-.26l.14,1.28a4.59,4.59,0,0,1-.13,1.77l-5.23,18.89-.47,1.68,1.9,7.25,4,15.43-.25.11-2.57,1.09L335.43,238l-6.32-24,0-.15h0l-4.79-3.14A1.72,1.72,0,0,1,323.6,208.69Z"/><path class="cls-18" d="M341.44,236.92l-.32-1.36-2.57,1.09.81,2.33a2.15,2.15,0,0,0,2.2-1.54Z"/><path class="cls-18" d="M348.34,220.77l-1.16,3s.63.37,1.23.79a2.51,2.51,0,0,0,1.33-2.81l-.49-.35Z"/><path class="cls-18" d="M317.79,158.21c0,.28.56.86.26,1a4.57,4.57,0,0,1-3.28-2c-.44-.27-.61.73-.78,1.14s-.45,1.75.18,2.15,2.42,2.15,4.11,1.56l13.16,5.83.74-2.11-2.48-2-1.24-.39-9.33-3.1a7.94,7.94,0,0,0-.59-2.21C318.25,157.71,317.77,157.93,317.79,158.21Z"/><path class="cls-18" d="M323.26,154.32c-.05.27.32,1,0,1a4.57,4.57,0,0,1-2.64-2.82c-.35-.37-.78.54-1,.9s-.89,1.57-.4,2.12,1.79,2.7,3.57,2.57l6.95,5.62,2.48,2,1.77,1.43,1.61-3L332.24,162,324,156.6a8.21,8.21,0,0,0,0-2.28C323.84,154,323.31,154,323.26,154.32Z"/><path class="cls-18" d="M344,165.84a1,1,0,0,1-.21.09v0c-.33.3-1.13,1,.28,2.4s3.63,1.54,4.11,1h0a3.47,3.47,0,0,1-.22-2.21h0a3.79,3.79,0,0,1-2.75-.25A3.51,3.51,0,0,1,344,165.84Z"/><path class="cls-18" d="M343.86,159.93a5.7,5.7,0,0,0,.13,5.91,3.51,3.51,0,0,0,1.22,1,3.79,3.79,0,0,0,2.75.25l.06,0a4.41,4.41,0,0,1,1.46-2.42c.57-.34-1.16-.87-.39-1.5s.55-2.38.39-2.72-1.63-.12-2.92-.55c-.67-.22-.94-1.19-.92-2.18A6.59,6.59,0,0,0,343.86,159.93Z"/><line class="cls-19" x1="337.06" y1="164.84" x2="343.82" y2="169.76"/><path class="cls-19" d="M347,176.3a4.83,4.83,0,0,1-1.56.69c-2.51.64-8.17-2.13-11.45-3.92"/><path class="cls-20" d="M329.08,213.84a4.45,4.45,0,0,1,0-1.78l3.42-17.33"/><path class="cls-21" d="M353.34,221.4c.5.15.88.29.87.39,0,1.26-.64,3.91-1,4.12s-.85-.1-1.18,1.09.05,2.48-.13,3.18-1.35,5.07-2.57,5.32l-.38.05"/><path class="cls-21" d="M345.07,238.88c.35.36.6.66.54.74-.6,1.11-2.43,3.12-2.81,3.15s-.7-.49-1.57.4-1.13,2.2-1.63,2.72-3.62,3.81-4.8,3.44a3.93,3.93,0,0,1-.55-.21"/><ellipse class="cls-18" cx="349.87" cy="163.61" rx="1.23" ry="0.88" transform="translate(-9.06 306.26) rotate(-46.74)"/><ellipse class="cls-22" cx="349.87" cy="163.61" rx="0.72" ry="0.51" transform="translate(-9.06 306.26) rotate(-46.74)"/><path class="cls-23" d="M285.11,144.85l-44-27.43a5.42,5.42,0,0,0-5.82,0l-44,27.43c-2.44,1.52-5.4-.54-5.4-3.77v-113c0-7.1,4.94-12.86,11-12.86h82.63c6.09,0,11,5.76,11,12.86v113C290.5,144.31,287.55,146.37,285.11,144.85Z"/><path class="cls-24" d="M280.53,55a2,2,0,0,1-.79,2.16L257.22,73.52a2.11,2.11,0,0,0-.78,1.15L238.16,63.92,280.53,55Z"/><path class="cls-25" d="M280.53,55h0l-42.37,8.91,11.39-10.84h0a2,2,0,0,0,1.15.35h27.82A2,2,0,0,1,280.53,55Z"/><path class="cls-26" d="M265.07,102.3a2,2,0,0,1-.56,2.16h0L238.16,63.92l18.28,10.75a2.12,2.12,0,0,0,0,1.17Z"/><path class="cls-25" d="M264.51,104.46h0a2,2,0,0,1-2.62.16L239.38,88.26a2.09,2.09,0,0,0-1.22-.4V63.92Z"/><path class="cls-24" d="M249.55,53.07h0L238.16,63.92V24.1a2,2,0,0,1,2,1.43L248.73,52A2,2,0,0,0,249.55,53.07Z"/><path class="cls-24" d="M238.16,63.92V87.86a2.12,2.12,0,0,0-1.22.4l-22.51,16.36a2,2,0,0,1-2.62-.16h0Z"/><path class="cls-27" d="M238.16,24.1V63.92l-11.4-10.84a2.06,2.06,0,0,0,.83-1.09l8.6-26.46A2,2,0,0,1,238.16,24.1Z"/><path class="cls-25" d="M238.16,63.92l-26.35,40.54h0a2,2,0,0,1-.56-2.16l8.59-26.46a2,2,0,0,0,0-1.17Z"/><path class="cls-24" d="M238.16,63.92,219.87,74.67a2.06,2.06,0,0,0-.78-1.15L196.58,57.17a2,2,0,0,1-.76-2.29h0Z"/><path class="cls-25" d="M238.16,63.92l-42.33-9a2,2,0,0,1,2-1.46h27.82a2,2,0,0,0,1.14-.34Z"/><line class="cls-28" x1="199.58" y1="136.83" x2="199.58" y2="167.13"/><line class="cls-29" x1="256.14" y1="119.18" x2="256.14" y2="162.02"/><line class="cls-30" x1="218.28" y1="129.87" x2="218.28" y2="142.39"/><line class="cls-31" x1="241.1" y1="134.98" x2="241.1" y2="152.39"/><line class="cls-32" x1="218.28" y1="151.96" x2="218.28" y2="169.37"/><line class="cls-33" x1="288.94" y1="126.27" x2="288.94" y2="149.6"/><line class="cls-34" x1="272.87" y1="161.14" x2="272.87" y2="167.73"/><line class="cls-35" x1="199.58" y1="122.98" x2="199.58" y2="129.57"/><line class="cls-36" x1="180.88" y1="129.18" x2="180.88" y2="152.39"/><line class="cls-37" x1="298.98" y1="132.48" x2="298.98" y2="139.08"/><line class="cls-38" x1="186.42" y1="114.18" x2="186.42" y2="145.19"/><line class="cls-39" x1="272.87" y1="114.95" x2="272.87" y2="154.03"/></g></g></svg>